<mxfile host="app.diagrams.net" agent="Mozilla/5.0 (X11; Linux x86_64; rv:138.0) Gecko/20100101 Firefox/138.0" version="27.0.9">
  <diagram name="Page-1" id="G9fnOpON81PtNRC5Vsp4">
    <mxGraphModel dx="1665" dy="797" grid="1" gridSize="10" guides="1" tooltips="1" connect="1" arrows="1" fold="1" page="1" pageScale="1" pageWidth="1700" pageHeight="1100" math="0" shadow="0">
      <root>
        <mxCell id="0" />
        <mxCell id="1" parent="0" />
        <mxCell id="Yxe4IngEFo527paeNo9J-3" style="edgeStyle=orthogonalEdgeStyle;rounded=0;orthogonalLoop=1;jettySize=auto;html=1;exitX=1;exitY=0.5;exitDx=0;exitDy=0;entryX=0;entryY=0.5;entryDx=0;entryDy=0;" edge="1" parent="1" source="Yxe4IngEFo527paeNo9J-1" target="Yxe4IngEFo527paeNo9J-2">
          <mxGeometry relative="1" as="geometry" />
        </mxCell>
        <mxCell id="Yxe4IngEFo527paeNo9J-9" style="edgeStyle=orthogonalEdgeStyle;rounded=0;orthogonalLoop=1;jettySize=auto;html=1;exitX=0.5;exitY=1;exitDx=0;exitDy=0;" edge="1" parent="1" source="Yxe4IngEFo527paeNo9J-1" target="Yxe4IngEFo527paeNo9J-7">
          <mxGeometry relative="1" as="geometry" />
        </mxCell>
        <mxCell id="Yxe4IngEFo527paeNo9J-1" value="Create instance of NumerAPI" style="rounded=1;whiteSpace=wrap;html=1;" vertex="1" parent="1">
          <mxGeometry x="100" y="70" width="120" height="60" as="geometry" />
        </mxCell>
        <mxCell id="Yxe4IngEFo527paeNo9J-5" style="edgeStyle=orthogonalEdgeStyle;rounded=0;orthogonalLoop=1;jettySize=auto;html=1;exitX=1;exitY=0.5;exitDx=0;exitDy=0;" edge="1" parent="1" source="Yxe4IngEFo527paeNo9J-2" target="Yxe4IngEFo527paeNo9J-4">
          <mxGeometry relative="1" as="geometry" />
        </mxCell>
        <mxCell id="Yxe4IngEFo527paeNo9J-2" value="Check available datasets" style="rounded=1;whiteSpace=wrap;html=1;" vertex="1" parent="1">
          <mxGeometry x="480" y="70" width="120" height="60" as="geometry" />
        </mxCell>
        <mxCell id="Yxe4IngEFo527paeNo9J-12" style="edgeStyle=orthogonalEdgeStyle;rounded=0;orthogonalLoop=1;jettySize=auto;html=1;exitX=0.5;exitY=1;exitDx=0;exitDy=0;" edge="1" parent="1" source="Yxe4IngEFo527paeNo9J-4" target="Yxe4IngEFo527paeNo9J-11">
          <mxGeometry relative="1" as="geometry" />
        </mxCell>
        <mxCell id="Yxe4IngEFo527paeNo9J-4" value="User numerai to download a single file" style="rounded=1;whiteSpace=wrap;html=1;" vertex="1" parent="1">
          <mxGeometry x="950" y="70" width="170" height="60" as="geometry" />
        </mxCell>
        <mxCell id="Yxe4IngEFo527paeNo9J-7" value="" style="shape=image;verticalLabelPosition=bottom;labelBackgroundColor=default;verticalAlign=top;aspect=fixed;imageAspect=0;image=data:image/png,iVBORw0KGgoAAAANSUhEUgAAAPsAAAA0CAIAAADDrtmQAAAAA3NCSVQICAjb4U/gAAAZuUlEQVR4Xu1cB1xT1xq/NwtIwkrIYAXCRgUcDBdiVaZCcbZ122fV1qpPfXbZ2r62r/XZodbXuq0Vt+KqYsXiqAqKAweKyt5ZEMhObu6979wkKEiCtVqffeT75UfCuWd83//8z3e+c+85F1ar1ZBd7Ah0GwRI3cZSu6F2BAgE7Iy386B7IWBnfPfqb7u1dsbbOdC9ELAzvnv1t91aO+PtHOheCNgZ3736226tnfF2DnQvBOyM7179bbfWzng7B7oXApTuZS6wFin7ev1vHuOmT+f/3492pOJ67qqCChEC8fqMWxXvSe52nW3FYNuMx6W7so4hyVMn6k/NvsheMb4PG7ZS/kESrpecKrhw+F5trQZydvdOT8wY703tqsATXmu5uX/mbeH3r/bjdanGY2vFcZcB8QkCj6ei+7NS5rHaPk0GTH597XnVsIlvZrJs9zJoAJcf2Llli8R/weyxiXSzRzhJz5j1luA5DBC8/vKueWdEwcNnLu/rYupYXHptz8y8WiMEwTCZ4eo5uH/i7AgPGoTkH137RYketyACu0WM3Zoi/AMMs4kFrhXd0/DS2LDoqtiB39OtS57h+tqtew7+So16c0xyjCveUH2/zuHZ4oVWi2VMTmzXo+738AOmcQdFcX9PTtt5npkytpt4BldaaiorPULedbfZxZY2EElpE4kGi0vEaKKQjDaLKlBOpsez7T7r5uC6st1XmlluDs0KFQq5mBRFK0Qypx4vb0kNoqHaiqKcj/LOhgWCoUjtnzb3QJIoa9ve0r4zPo10JpHIjzPMeqM2SxklDVVszyCy/kajQtizawCQm+d+OYJFfTE2IZxGNCMM7iM0N4eJs37aWxk+1Ku+6LJcozCwJ742Lt0d1jWVZJ2+eKa+RU/zGDgw+a0oriPIjysvnc/be6+hXm0w0txjYpPm9fOkQ8jlvB0bKnStSjXueGJOJQRTBNMnJg9yAPnVty6f2VpUXqGBOb69Z6UMjmZ2NS4NVacW/1reolbohKO2ZYQ6mTVEq7/fkNMU3stJWl0mVZAF8UvTIrxNE4BGcnPrmSsFEpUOo7hze88fO7AX1aYyBnHRf87euCVVKhHI3bPnjJShA11BLYTHmnPbfQxfc6tBUqtzTUnNnCxwNGmpL7t1ftuVe3cVRiqdFRmTtLg3F3SGdWTMqlr5a2y4d2FjwZ3brQYK0ydteMokfwYM4Q1Fh/55RabStBrJ8vc2XYEp/jMnJcaZuqazoE3iCtw3Iai5rKEZFXJUEpHEhR/oCOGKa+/9WDZ05oRUBgRh0p1Zu6v7z34/lFKct2m5iO2naahi9khmSc6UtvD7j/ssmkOGUHH5xU3nb15v1tPchaNHJI31cTJZil7P3bDKGDOeUn68VqHQoj2HT30nnA5DaOXV/Hx67wXBlf+RKVEIIriINZdKjAFRXk4kEkxiBPhwXXCRHgWeHQYUpyJNVSrnYL4LjfLHp2grjMfkV5buyC9FDAbo7pw1ZwwGFK5eOyUg6Yf0MOfOgBHEu3f4jj42KTasE6a4XlreYqyokacmT5rpSkZUrUonGJXfXL73Ei0ubU0mnyK9/EX28QOeUyZySRCu1TPCZ786MphJaio9+f6x306FTBjlTI0ZPj1myP0V6wu8x02ZBLJZRH/zzL4VDX5zx8+JcdZczNu/8jR3XXqoVQ3NJWj+w9bMHHAye0MOjwPGi1kwhbhCa3RwCl48Pp6uLPpg89Uzsp5EK2jd9sMX5LETNoxnO6LqinqFGwGVLWVwlZbcKy5jli+LYZRkH9i9rjAoNlFAgdAqscyodxPGZUxywa7/uuXz69XjBaGOEHL/wr5ld92np037yJOBK+sK5Q7AMJvIWIMdpCnKfv0wT5mSMXWpD7Wu8MCSExejZg6PIMNefUav7y3fv2Pb7d7TlvUyDzAbVYBKJGKZm88IIfViSaMSYlWJpBRubx8ShEhFtQye0OQYcIO0vNUtlEMFXqlSqmH5vbw0rOK9rNvqgZNXcA/PqZTooj30908szVMPT524WOAkvpXzUc6FkNdHRALQcEW5VKvS1GlSRq1KYlCQVrGBGAm4+u7OIlX0iD6RiAirUspxiA8Gq15S1uoS6gnGA4RqG48V3Gn17t+vzZEZpY2VMDfx6SJSK2OF5B795dzpU73cRo6ft2tCXy/+oNXz52fZoDuAQ1dXUQwJ4gPMA7oDsqhMXEXympAcH+NKzJJUpiuLrDl/7lxNUOLCvt4sCtmF33OwR0upFCGKkbhD+oaGMKkwRPbw8/OD8bagDUKbxVWQR6D7Q22N4ssbbjlOGDl0AItGobr1D/ejSkQNmM1+tVzAZOUyqpBLuF+zGKTiOpeIKdF84Mgg4EZgGp1mdkzqJi2EoXotCmYVRqCf54OAqrMywAOx/COT/FhMEgTTPHp7O4PhS9SPt5RJsD5x8QNcgPlkMgw50GjgF95yc/MVJCUtOcWTASJRmrPPYAFQyTYyVs3CJD9fuO89KGW8D4MC0Xz9fblaeaO+LSsiLZe7BnLNxlgtb05EK0VSRx4/0MvLW9pQiijKxXoBn0uD8Hqx1MjhCUxIoTJRFYUT6Ar8sqysmTUwjEsz6HXOQS/5Omj0BhcXZwekZteZyoChI1/1d3Uk0fx6hIdrxWUqEwhGaVmTQ3R80jhfoCcggSsPzEOQseTyxauMyPHBDAadTlEpmkx5UamoEmk5mr1u0vdrXtlw+Kxj9MejentaZm5cJJJo2LyAPxC8m201/bXi40Eqrq+7KfcczoUlN+qNXvFeXQULuFTegrgEelupCW+SSFSePQYCpB6Ivvp8pV7t8Ovfa8yJuEHv1NeJGA8aacn+izcKxUoNhuNGXYtDjwwCGkJUErGE5e//sAms+n5pLaY9kr3lmDkHZkBdYtqyP2ztkV+4UlKh8xgKZmCLYHViKckzPMCUAMZnDY0zztnUKC1oeqps+9Xjb5/Xs3x6TRkxOM7FMkw6KQPmYtWNooKDJbV1GiOGY1qtVpjAJqo0SMpb3Xt6Ex4LwlVVUp1viAcFwpsqy0rdQufwO0JmG5k2bTt8Y61VV+S84QEWB4hrNUoqw71tmkXl4iqYk9DOR1itBAy+UrHBP5Lj4EoNody+KxbVN9ODeKBOfZW41dOTQ0SbIJNU0soO9SdBWBNwYfyh7rDilkTN7+NPQgrFrT4BHnj9+QKlEb6wa06+qR0c1dB4sabhBhxENUkwKcAEQpvgrbd23ND0G9E3EARDjnSmtrUJrFVpuEQsVvIHLM+M5JIpdEeHjuPVUCluZnB5YCp4GunEU6z+p6zDuQqDEoHvbPoB0emM1MMzanq+M2VohI3FDPBrkBF54FzaaQPm9GY2n+va3lSdphXynjp5wsiOMTeuLP56b4FjQubykRwmCRdd3T2/ig8gNgkRGzC5sR4PTcVbNVq3XqPWjQCRwxMIIpPUM7gB4I6ERXQVYqWvP8fEEwC3VMOJ8LeYSfYMHrQkeBCqbdiZvXdzUXB0gvnuXmdljCXn9n5ZH/zey1OinKkwUrlmSx6dR3SwEUxxFE6qecAD79hED+QSo1Kl1cFO9PZ+gGjeBjK2zMPUqlbYyc0ysyIlZdWoID68DQ4wLGVsofCx6BgkZXLnIKAtiRbGU+UUVzbhnDgOoHZzRRPZL9I8GRru1srcufFAYa1ULGYHgPVtuajJm89xwGSlMmZQf0djs0bHjv5q6iBhp6BBLZFIWIKOjtlQdKnwJmIgnVg/+gRhuhHnSdQ4REMqRU1MXnwA0zQbPCKY7L4E94/j2qDho9lt/d9JQZL3tGmz3gln9hw6Y/vrw3ozQhbPmps13SbdwYTO9/PjKkr2Xm9sMRrVClH+jbI6cziCyyukmD/P5O3aBGZw/B2lF4pFChCBgPCwsfR8HbAVeILGUpQbF0TQXSW+tu5SI4fPJSINQhBZq86B2n4yI/lw2eqqOxdbEFAW0TZdv1NRDdY+jxG8USJBPHi+D4wGLJQ5Crlmr24ELoTD4xErAVx9+155hdqIg9lO2yrV0doFQp2UwbVljQq2ILQXoLtRcfHs2dM6bjARa+ItEkkLmy802Y+1iCtRThAgEwTzeBwn8f3TYj0GoSp5TV6ZjLgZZwMZWzaRXdz5kKSoWo3ihrq7p9beY44bEMy05MaqxU1MLvext7aMMlEFiRPMBlpRQ7zY5XfvSdz4AcAB4EY9AhlRsGbE5JUXdpcb/XhgdsJqxTJ3HscZl5dJKQE8F0gjLtdxglkkGpvDby0/VaMC4SmOqCsqSq63mEkANJExODxOO8eMNl3fcQeNT3/z0KJFxOfttP5klRSEQMSyFQMNdeI0ZkSNeoWoTOUsZFMQFHts9GoLNJBuZSxBaENBFbM/WA9WlZZ5hix4sMqzUQ3Fc8AHSfp1F7NnnEYcmKzwXgkLzeYZpGVguePRMeyiCCaPjPn+1KG/XTTAFBqL7Zua4A+yU7x7TwzI+Wl7Vi6L6c5yp5JpATz3NssdevUIPXR6/5TbFEdOzKfjon1hmBuZNK8596ft369EyY5OriEh/eeE29APJBvKv9+edwXBDTqVDjr99vrfKPwBX2REeijFFXp2knklhDWXy2BhKItoFFdXlJzPzv1ZiZHpztzYfqPfIO4tmKWzMszBcX0L8g7Nr2Xx6c5CRyrJEmuileImwA8XUzngHUVmMkGQU0DC4n4nN2ev24mQ6M68hCGpw0AOG8hYmu30Bbv0mpnQsOrEpgkI2Y0TmJH5csaDJR2urJDq/CI6U+eRWnC5WNzCCjQ5YNjDk+9irNfy+ETcTPZMiuF/efLHt694BPm5MUjuYEkAQepyiU4QxSYZykpb2QM4JKRBDIwOoEBkbszCBMXa3C2vaCAaje7t3XNyogkwXFku1Qk63OvTFhRcqfUa+E5IG6QUBttRJ1UiOAj9lcxAzqNLbUNl7vTsW62mEXRr5+oDDj2WvjlywB+N5mH7ye5OXLIn/D8j0Cmq+X821m6bHQH7yW47B7oZAnYf3806vNuba2d8t6dANwPAzvhu1uHd3lw747s9BboZAHbGd7MO7/bm/umMx1sPvRk7ZVvd0zwm+4v3Elq1+bXYeUe7xxttMdGheemLc8wbw0wdh9ZkzchYdtb8BOl/35XWnrk+U61gp6hXljA83ds9ZX6m9f8FKiOxB85YEhzyuGfXaMvSD/K/03nvWR6V5gQe+9aNXVQe+f6QT4hH0n+24EXZvw09qhs1e9j2/mDvKhC8+ND5QYcUYPsDiUxmcdzSRoR9OdzNDcZLj+XH7GsxbXYlhBYcfu2DAGGbjuqC9Wsbk1cntdvfQBaMndlv9LfbSgbO6/FHH5S2tfYMvv90Hw/RhEPHJ4Y+dlvjM7DlRa0Cdg5PGj+k3c7PLhR10Eo2XNI97wkRVR4t0vFZ5N+uyhTm7TBmNgeF39iU1vzDS0dGOebvvrr0FrH9Jyh1gHhjSn6mi1NA6OX1qaL3hA/oDnaFntyRy0nPDOnoSOlxmUm6AzvzNV0Y/twuWfPxWOP2GRk5QTOC6gpKampbuOmfrFw0iAVDWN2JFZ9tzCuuaUGobkHxU5a8P6UP2E8H4pa3hm+ipgW0lElVCq3HiEWfzRvCA9tT0LubZi3aX6uUSf3n//zTVHDKoAtBULWU2LjUTmCyC4Vh3uXVuaA2Z8GQ9fQpsYqrN6tqpIwhS1YuS/UGjRLpW8J37pkTTIYw8a6Zo3ITj26eoN40cdpJ58DWO+UeIyeE3NyXU+8zdc3mt/s4gd1Ll7cu/3bXuVI55B6WOGfZ+2NDzKejsNqtk8fkJ3wSUbztZHmrGuG+uvrHN0Irspd9kVVwr0FhpHF7JM78YMmYELptBCCk8JuJH5+UK8RNfT87v2ZU29a4zuZYUkhxcZyqM7V34oN7PsyDXz9wLkUcUv0mH0wThpLiiI3QhhW9+t8sEu7R9aepCw2sv/VDD5xphiJ6HZvjLYAhTWPDpztL95RqtTT6kGHh32VwLKfYjZI5i27TRgeil6rz5YgG9vj3h5GZTMjYIDomc5s/hf7dbtEpnedoy/EwQG9iUz+V4hA1wD/9aOPZGh0aySSTSA4k3IEMA6FSwe92iiry867xBvzd89GepoQPjIPeP1VkSBjU6dSQTSz+pAuP6tbWjPFeCWni6qx9R3e8Tt337e5SYmMijsCeqe9tzjlfWHB85TDx2n98d6ltjzBaU+Yw6fsdu7L3LAs+s/RfOTKCuuSwmZtzju9bHPM75jKsWJQVfmt1SIdP1kptV97OWFmsSVy+dc/R7HcFZ7/58eqDmdYaVrjOZfjygyuTZfsveH954qdX9IeO3kDAwbPtC+fvQceuOXGpMPc/KdI1C9dc0z0sjlw7eIo7/8fDOb/k7v8smdhhhVADx3+6Izf/cv7hj3sVf/nO5ruWLZtWEYCosYv3HT+26fWw3wGBqVmnEL/J5PqNbbVas6RdGua8YOngZSzJthbfcysiIu/UHpfjuFb67rfFlwU9zn6XXP1JmO+V62+eawcjrj94QT1mzuCifw+7viQwmiAgfr9IXO7DSenLHQLLjtwBjvwRwcV3G/OaKUGejp12NXbIiVbcuY/5B1k5Ek4RBvmp7t1tePz+1kfbfub/W/PxRCPk0KSRIcRxAH7vKP4qYituCJksTJomNGtA6zk6ref6I/elWH8fIoQj+QxPjybcMSNq5DDWjF8L1elpbTtXf5fOpEB26l6moSPBaUHtPUinesg+Q0f2Ixp1i+rj13q6qhVvv4X+keywi8CP7eQj4Du2Cn2cvAU8ZWkzgpYePVAcNj1nTBhx3CN0wuSEzZ+dLFnUt48FFpJ32t/GBRN7/MiufgKixh4Zr/cw18yOzhzhv6e4TAuFmc5PPS0CFn1hxuSXmEPzRJIZneztlEBmMwMcaAiX6uPBdHYy+jsbREpIWVqzH/XaPZpDHB1gceYPYcZekTUN8W3brwvHjwgabjqo78Rm+IAvTH3smjqwD8ffyTE5FF98tUnVj2fuO6SyNGFBBQk1KjHHwYlRn7fB0kkRSwKuVKocmAwrw4LEYDAglUJlq+RzTLfFeJhOt5w1IJNJGIoSVMTlRTtX/XCwsKrFCMG4phnx7Q92kIOpD/S3i6vlhCkMfqEtciUGgSNwTyAOFLdguGNUA1FYXVYB0xmmIzpABRI4SmOKiQhlrAuJBGwlU8AReOKbDAoYUUwqkRrvbJyRvt1cDtOhWAKxXd8iZL53x7faoOILm1dtzCmqVwNvZVTLjJEIAQGQp0fA0ibMi/Ybcbh0h9jXuh3tU8ELLoAtJJhCAvqDv7gRxWVyvU7VPPdDmaVrUZTBNYIbJRbGwzRBx5d5oBLx0XrH4VOYZAhOiHTX7ROd0/NSTctsim/AgQUCPzLZhUlxsI3sA41gZ2emXkxA8+iUhmk0aojp/ERO8PHm/6EcthhvpTLdhZULN8rnbNg7PsSZjEv3vJF60HyaE+TFZBIZBhFnH8CvJpKr25PRHRS7I941VCTtMKPCnHfDZi2jd8n6TnrCFDJsRMyzJ67TajusDDrmxiGSB4fDjJ+7/2viRS3WBMSq7ZLx5pzP/3HQZdn6g8kCJxJaunbCazfaDuM+NQIP23H0eGPA3Wmn5V5tugNC4ygGsCFe4KBHtbgVL2oujoNt7m4OdE/O3o+De1gHDoY7pOOVRaKbRs3NL39ZS1SBIyjtyD00NZLIBLBkuzq0P8xhDaOHaeSAHiGkS+AwVnLoIxqilaU1zJDwF+EdUdZRsWqYUaXSMwWhAmcyuHV2J/vnG+3oiYlysw5X6sD52OPbTyhihsU8do32SBOkAHbKzsAJu9t/AlJe6TKqsaol1dffS3TrphRMSrqyX36912XkSA4ZlRlwaf3Kk5XgfSmYoaWq8OfT9w1W6yUScYNKZXQXhoF3S4AzTVezT5Q/rP2JEcBbT3yYnjZzsxUN4YgEgfeNhkJL7bAPn06pbSkCiyZcf7yww+2Uzro6R/i+rK5ddlIuBv2DGuurxPvu2r75g2tzrik9R8SJNqU2g8/Gl74KNeZebdZ2rrctBccwPYKBN2oAQUw/HuSFXQYO7ysuuNj46OrLePdCIT5oWO/H3aC13eqzu/IEPp750tx38z9aOmYci+tM94oN60EpfqAHJXSA38V/pKyo0bOixv3r83TiJRvKkx++suISgmmaNZobU5OzyJSIt7Z+PZpnfZC5OvqPtMQoT2UdOfS1hWMWfj4x46DANyg6JJRS3VV15IApK7/Bvlo9O3mpHKEwvcIGTlySbLMAiZe+aN6Vf87NzGV7MJyFfSMCKdK2zNYQwOr3/X3mhhKjUSXTGJa/nLgapg56P/uTYeZ7IahKWlfX0GJtgJFYXrN63f/tsqVyt77By64UzVh6zp/LiPNzI04O2haYwf1qUdhnu28NPKRVgfdDeLLGZbiOtZEfnNQ+Wu0wary7hYuwY3qc+7IjogKDh423WOFlxwva7scrYmbf63A/HmYnTkpat/Lw/Ulzw9oxS1N44CRt9DeDntQN2lD66ZKfwRko4u7kiL2x2VkzrCzSn067v0hpOwIPOwo8c13wxrnUrV+D19mZU9Ga7W+8fX9a1j8THjnL/r/p3Sfw8f8bBe2t/rUQIPEz1/yc2V5nsmDyliMvjhFdTpAvjpp2TewIPCMEnkFU84w0sVdjR+B5IGD38c8DZXsbLw4Cdsa/OH1h1+R5IGBn/PNA2d7Gi4OAnfEvTl/YNXkeCNgZ/zxQtrfx4iBgZ/yL0xd2TZ4HAnbGPw+U7W28OAjYGf/i9IVdk+eBgJ3xzwNlexsvDgL/BZkAG3nxUgORAAAAAElFTkSuQmCC;" vertex="1" parent="1">
          <mxGeometry x="57.25" y="230" width="205.5" height="42.57" as="geometry" />
        </mxCell>
        <mxCell id="Yxe4IngEFo527paeNo9J-8" value="" style="shape=image;verticalLabelPosition=bottom;labelBackgroundColor=default;verticalAlign=top;aspect=fixed;imageAspect=0;image=data:image/png,iVBORw0KGgoAAAANSUhEUgAAAW4AAAEICAIAAADwbYmfAAAAA3NCSVQICAjb4U/gAAAgAElEQVR4XuydB1wTyR7HswldeleUqoASuvTepdoAFRvYu55nVzxPPU/x7qmnZ8ez914QLICiYMWGDQUEQUqA0NKzu29T6EkACQo6897nJLO7M//5zcx/Z2Z3vguhKJqfn6+hoYEDASgAFAAKfK0C+K+9EFwHFAAKAAUaFQCuBLQGoABQQAwKAFciBhFBEkABoABwJaANAAWAAmJQ4Bu6EtbHv3YcOFiCiMHqLkuCXZQyZWfiU7ghA+aDGwcm7dk9esv/FjyobNN0lPZqzbZj58hoCwOR8scr9+2J2bktbPu1ByzxWI9SX63eduJSdcu8xJM6SAUo0EEF2nIlKOnE4YOHSxF2wa3Jp59ViG63zHd/btu5/VNjR2xqDIoqOrl5+Ki3lSP3GqTiwYJ/LqQwOliazp8upxfuY21KaEhIytF/0oGpIT7yskbaSm2aDpeX5Uuq6SlCLQzBq9v9MXX6FlcdKXVtA4nOW8lJAa4sK5TRMFBomVfz1FkPru2YmVYiuEo6bch3q6ZOWw4SELsCbfQOlFbynqplqgaVFJdKa2sri2y37PKSXFRjgEZjR2xqLiSl6WJp1K99HYlRXlaspGUgJfbytpGghIrhEBOtXs3PQuvKPlLVhZWrybloJamsRkWjn2BR4dwSkqKmlppIDduwr8nhmvKKWjUtPcF51Z+HkD+SUD1NVcFV0v7MhJz5vapJiDkg+nsq0EbPZpd9+aTWuz+B8aK4xsBMXWSLRKtLSysU+xjJtiwP81Pyr7dyqig1dIOQw2EmDcepZS8Ppj7JKKujIxIqmlbzRjoTJXHkN9eWp3+hUKrp+C/r97/GQdLO/mMn6QrNmVn6bMedF69ItbUsnEpvs5ghns7Y6IH5bsPuZ4Mmjh6mxOm4aM2L3448Nw4fN04LX/jm9v4neR+qqTRUxsDYeZ6vuR5HAyQ749TmrOqaWqqR17Q/rOWb9ndmWXGBgpZhk3Kh9IKzN+8nF1VW0NmSiv2CfIZE6clBODi/tFJGsuryuQOpRTU4ZZNJof4+Db0YrfpYytK3aaYhyihJvHPnfHZxOSJnPMh9vpdpH6EF5ahaW/Rkd/KTx5UsRR1rT6kKdU0Neax0Ao1Bvhw9mZBaS6+oheXuHppyF0fQdFgbZqEF4QQrhqVDLbyYejfhU0U1CyetqBMePGyoJsdR0SveHkl5kFpUxZBSd3YOmGWpKYMTUU3sovf39mW8e1/DgPGy/QZ5r/bur9SyRYDfP6ACQl0JQn6y8lj6BxaTiXs3Y3sqkwlD+bvGG/rvDDVVEKwDdtctl9C0bn1PltL33j7F6ea5vQlaGtIN18KFRy/dJ9tH7o1Qk4EpuUU1ylxbVAYF7x5EuX5m/93+YzdYtzF8x9p/HY1AdAib1k+1F7vs3PmTux/1t/fTlZBQ6adALsAWN5Swrsl8/vBRoZHPUi3O3zWIWlCgs7WGHEJ++deJlOM5JstNsMEP3thpzD67nP/tSVbUxJxC04AUFpehGv2blgulMWWN3NYE6GhJ0LPSTq9OeeY8wcUAqsol0euYzP4jxk1Roly7cGRfupFziDHfBTHLPpCVBmhJNybOLj1z7vwdVfdlk8N14cLD5y//+7LPeutWs6N6W5CqF3EXnyl4RBwyUyK/vPzrTaZFKMdRIQKNwfcZFzVldOHtaVeR+ZP8LBs9lBDFcIyM5MvXJXzWTzPRIrBIxcU1Chw/ApNfbjz9UMohaPswbQnS4w3nrp/vPT5KEy+smpDyJ3G3Sl1GTozVlkVp5a8qJDBnB8LPoIBQV4JXGfznbOPLp08Xu0yaInFv7i2pZWMddUUMzlHyxzKWnplmo7No1h/Lc8olDWyaLDfAlAoaDoEZNBgnK9HLSK/JrAImfSyXM3TqJSK3+rQhVX0Lf94PKXUrHYWrdO5yDl6lnwr7VWUdaqCEVDw/+kElcpwBNwOpQURr/rXKekQV3Osmqz9IVVkerDGi5WoOPae0RkePcytuCHiV/iEqvF+yprravfJwnGRY5TlkWc8Qby9VzDdJmusoMfPr6lCcLLcY2OwvT0LTv3GKiBa/TDnLtPjTj2jE6ef9vI0UkkvLYZyikCphZz15+EHHdQ9RDfNNMob6ehIUI3VJ7ErBxnDyRCtKy2rUzfSajXSEKIYyKylMnCKbyoJxEpIafXS5rz9T76WlFfQP/tdGh+MQtc1c1R8+JbFwvEoWVE0Ita4KRdkMJhOVlZVVt+7LSQWEn0EBIe2WW3SUUfiS3NtHEyp7UcTu49ZHZM9GGWUfqmSNtATfVNHasly6umfTZRSp/tGB5UefXp9zj6Halzje19VBkT/vR6pLc1nqoS27tKDqQOpePMu48PZzIZWNoAiNRjPwUON2HIm+agrF5ZUwTjIjPZNlOdyXaxdKK0568PDWp/JKFoI1+Fqq0gi1RgVopNJSJS3DFgs0cFk2SdrIvmm52F9ynpzKzH5XRWehKMyg0vWCeuNxcEVpPkE3WpfnS5HKWoqUgmL9ZSi5tLRKzcSwoVejtY/ff2HW1cQdfM8rGMxiqJo19VfNy4uQnn6imjoYKHKjESqlRkrDkOOYBBvDPQv+VFqppqnZbBQpTDFIwcfbrzT9+fr9t9nK+sEevhG6chAj/14egyJ9a0EBr+5RJkPWRpZfBoHVJNHP8Rf7e2dTjl2skx4w0Gmmx6C+oppY8zKCXz1ZASH1jBQdOnLpRg2zlgW92b+TRceWBC7FFJgtGe9p3uwW11h0GLvr4jRcNAQvA7LKy4p6aRrKNZWK0HuAy+IBLjDty/Fzp+OfDRjs0ZuXNoNU+kVRsx1rruy3aaf/LBqwbOh4SwVJiJW3/cBtOS3e9ATfW02ZUVhZ8uXzyRL9aH8tTjnRivMXziZrDlk5tn8fKYhdmjbvXF1/lQaDkc+l5RIa5r2be0ykpiyXqT6kiROk5NxakUQZNjx8Tm85SRwt5WL8VW3ObbqGRCLJqKvwysD+8jAfNnfRqfdLcF5phbKmJnfphhtQWhWN4OA3abmJkCpoKhXn/LpyipSaghQ3AbQkP79MdRC25irMGM5ZnDVXRN+o6ZqrCMVwshpmk4eaTYbrHief2pD22jXKrjedWo3TmTAuMrjZ2hHfMsHVBMlb2Q+xskeppMw/TyafMTD5pdF9tigS+PlDKSC45+PwOhMnTlsyUN7MM+boJG+rXsa/Tpt9JFqoH+GNpauVNPsR2Ew29/8wzG6cO6DFZWUsda3G5QaU8vp9Ti4FOwVl0KpJdCkDzYa5D0qurmVJSjVZVBCiOEr7WFyjpmtCxPwIu+bBnTspdM0B9WMZGVU1VXLuobQ36g7Og3kDBTbpPUlyYH99zI/AlM8nbj/7oqpl0OgZaXkkSj9tDc6coUlA6bQ6lEWhNzxORUpLSmpUDVy0MT/CKnx9+2guwVALG1DB+WUkVm1hZhkTZdc8upuSJjt4tAlvcoMlx66lsWAmg96QMl7JQJ3w9u3rfAYmE0IhF6Z9KKEIKSgnGpJXl2cWYouoWFpVWQeflCpoaKpAwozhJoTWltYSZCWbuEahimG+6W1mBQ175QVmUkvrWCqaGqoQDuqloS9Dup9VUoO9UYMyScUf7hVS6mtVQDVhq8gZ74tJLOwUdl1tTTWkbqQqpIGJKCk41DMVEH5LhL9kfJJ3tFOgfvrwsbfxfMFLIA2FZucWk5ikwl+2ZvCjIJWRYydNUsv79+jtJyyUSa+j41Lm7Lkroe20IcxCA6Xkvr137saVWoQgp6Bpbzt86sCGxU5I02CQ7av0X3Y+kZbUmTg2zKfFs9mGPCF5VwebjNsX531W1ZZTMJCRxKtpGdZ7AryyWh/Gw0d05/+Z1U8yJA2GO77558bhX1VUVOQ11CXx6upaKhCOXZi2OOFNFQpTKCy47MSkx/jeVkPXOWjynAxB02y4Ud7RQ/8cgaQch0xdYiKlR3T0+ZS29HC2rqKcljpBmsB9/o1W55Uxzcz13l3eHUGX6mtovWy4PXcRhBdkbK2tb964On4LIqluv3GssyFexsUrMPfG3RW7U5h4yV4Kmra2Xs4Np7f+A6891Mvq/e2Ts94qaSgqEyQl9LSwqRxesDG8ywnabmbKO67tGSchoUYM/dtNR0KoYuzyL1n7n98sYaBS0kqmpu6/uehz5loSuuOC7f5Nvjj5AROSkFJV6xfooV/vmQRUE0qrePg4/Z9ECguSVFHXDwgLDRH9+kDrYoKYHqsABCADPbbugOFAgW6kABh/dqPKAKYABXquAsCV9Ny6A5YDBbqRAsCVdKPKAKYABXquAsCV9Ny6A5YDBbqRAsCVdKPKAKYABXquAsCV9Ny6A5YDBbqRAsCVdKPKAKYABXquAt/IlaDVF2fajz9c2BaHDGWe3ps68NdbvackxWS2Phl9eCrV8D8Ssyv1Zjx/obvifWYXwYK6znKk5OLc0F8TmtCp4IIjMWGr7wDOWteJDlJuVOAbuRJI1nLU4gkO2LulogMkFTnN822c3TRNwWfq2wz43VFe+Cu6TVNHn5+/23dvaReR2JivX/Vf8iajizwO40vUjPt/F4uG1jWTkpKxZ1dxwFT/JmQlgu7IKbYP/zn8VkwISNFVB47+5Ap8I1eCkzLwjPAzaQ82QFSFQFoDdMYPlP1WRosypXsdQytuHruhETrMuLmXlXMY5k8/fzyd2r2sBdb8iAoIv8EjxUdjwhL6x/QvzHhb8LlKM3TNloUu2B4vpDApbt2+21kFVSxJ5f5u4xcvH2+NbXjFpjCzfPZLBhlWfSTV1dDUfReum+vOgQ3B7/ZPW3j2c205SX/elUMT+n6lH6h9+tLzVEVNHZ1lNzg7RqOBBFCdk7fgaN7NEjYqIWEwqP/+6bqmeBy2WT7wIplCodfAr2yXvIEgybBo5z8GCs0apVXvOfxq8zMKU0l5ggWE4Pib/Skfc2ee/ny/kF6HEvoN0Fk11mSYFh4uzovc9imbziTVQhOWl8rgoH4eNpeDFSVQ6vkTWX9lVufWIZLy8v7+g/7yU+GNwwQaie3iK3j+ccn5z3dK2ZLKylHh5mvt5KRg8vo/X5yqZpcxWGl/pR4kYPtgjC7O1tXDRmkw9dKZV2vSq0vYUC8lhbFRtmvM+Xv10Jr025laTgsw1EHzIDHQ2QG3PPkZ08Plm8Mtf8TuAsokXAHhroRzDfv9W/zqA0dMJYtOTB/5v5OhjrOMCSgL6h24LD7Oop88/fV/86cu+sc4IdaRu9sPLvgoHXvqmIM8NfOvsfP/MLqwLVQdIphOiU+YjDkav3PCzWj7iIKtxVNbbK3kzpimt1iE8t/x93mWzm9XK/ZiM7I+0Hhb97ScrTKdsQlOWki5ydNpWm1sRcQhGRefrSnrfeFvl8FwRezmx7U4PkIQgSXshljHDVLQwtMvHXk4/T9Z66X6er0Nzm00wCY4gw4RDv85yKlhzx6KQmp94hZb22lK0D7ljvnr2e99PbcOwmP7fgUaSc/9ELG31CHG8YOtHOPjh8jtz/7p47xIR2XVKs9V2ARnfp7tIudfmyAP6Fkf5j+S2vy7X4QKrqaU/BKGGiaBcO6bbEQ/RAC2UsKgv17d5XdfYBd9IXSItqUHZwAF2qFAy9tY80sIJv7BxtgdmqBtZaldmJvPWRkgGPhPHDZYV0kKIiiaDQ8yq8nOJvEXSPF9fUIHYwxFqJdlsLfqw1uPRO2ab4dxbZ8CQXg8rqqi9gOZjUpKWwxSFs1nEpwgXHPtOcPFy8CxFySpqDbPU6XhBq5gojvXRlFbBoKkZINdNdSKaz6IWBzB9xoe0NdVS1IagpT1+0bos14X0jnKCDYSyUgrLDQbsN6ulzweUjM2nG5cd/k5RUTyODyEZzI+fqFUsCFFLVXXPo23AbS2tk5avpcAZ4Hv1asXrq6mTnDJQSxQQGwKiB6VQHJyfOIGgYBHYJjTMVDys+Nbd1549KmKjYNQaiWrnyOHTMK5Q+IVlfjELgj7C64i1yI4edHOqpMFgeSmTLKsupw/c31WPiLn4Wn6z1ANjITcsYAyK6h4bSUJ7nWQmopMgyuhl5ZsPJt7+ROdhpUcZpWwtEQ9PEKZD26/35BW8aGOoxOlFjEYhHIWTgUbiZSQmbSPb92X8SlqbAZBSacJ46VVGWSIJoeHfvjn/BPrIqaSXu/F4wdN6Mt3HpCCgjyjlOOHWtBWMNwalYKTVwCA1VZygggxKyDalQjIjH5/yy/7yDP2no4wViCgpFNTAy9wwaacgJSXlSM4Dk0I+6sCr6T8tX4EIuBRpPWzYAHm4OR69149vfdqHFL24ePY/73eZu6xwYjvS7B/uF25rQBJqfdC8qhYfhy3h1FLWDgu2hml7N3/IsnQ5so0DR0Mc/Tutfn2Zs9CIAzc1CRtWta7cVeZSxe5TOorSUAZ+/9KOVJ/VJCReG0VKS1Hy0fj1ASsYnBKgOEfmlsOSbv6EV39cAidcubwo3lnioMW9FXnlpVgOMgY//BjPhxg0mJkAud9KJA3Hsjn0zVPD/wCCohRgQ6PGdh1dQx5XRNdBYz2Q3lz7soLdqM1SMmNI5fy6BgT9vrRpBo7bzth0KL6S1gPNo8Mivzf4yZpcA7hZYw1oRfvKqvadAQoLe0x6U0N5nYgORkCASL0atIv1RSlWNiUpEXircUjKIZYy2Q8LCnCnAmbciqjkj/0QOBaOtRbR7E3dquH6VfvlhY38W54BWmVutrXTUxk09g02V5ETUmsN9flfz6ZU2+9YCPxji46Co8/bHpNo6IYu4zx5lXRrdL6S/BSGrL0rCJWU3dK+Vx2/iMNw6jhJQhyBJyUNKEBkAYpOvvYlGY8aGogt5zsd/cfoS7eVm2tFrUWBcQABTqmQIdHJfJes5emx64cEa6qqSDXx950kERWQ44SJk56DxYNiStgqFqG/7E+lPMZldqbq0bFPWQh1Eoq9cWEgCMECfNZB/8arsX1YRh263NBUSWt5e1XatgIk4RdzwZMhyX1je8sMxyA1vy1+Wk8CWVS6eXoC8ssPF6hz95YUxcIKXj5Yc6RzBIWTkpOPmCE+Zy+DdMbSMfBaGZmVsgv+ZKSkiMmu20yE+Y38Q5DrZYdygqJ/aQsKzlQU1GuilskguK0MfozjmfY3ZHWlJKyNFRu+v0Kib79ljmVr1hza5MEQd/LNjFMScHaeFPWi5mr09SVJXupq1noQU95yqCCjZTtb3w65uOK0xkDSlmwhKShodaCsX34WkqozhimPvn4HcNjeDn9/gnz9TB4GUqpPnQsa145iw0RdIx0dk7Ubvy+DKTmN9Z/95ZL2WNnmzapUuqj8zelhv/t0pZLb6hB8AdQ4GsVEBtFjfMw2Pe0/bkjMQKeI3ytdeC69iuAve06f2pa4MG/gurfUoMLjk6dkz3xyO8ejXTq9qcHzgQKdEiBDo9KOpQ6OPnbKYDXHrb9yrCm+RF0xx24/O0MADn93Ar8PK4ELXtXEP+O0WoxFz/I3mj41zxD/rkbDig9UKC5AmKb4ABhgQJAgZ9ZAWErkT+zJqDsQAGgQIcVAK6kw5KBC4ACQIHWCgBX0loTEAMUAAp0WAHgSjosGbgAKAAUaK0AcCWtNQExQAGgQIcV4D8MJpFIHb4UXAAUAAoABeoV4DwMBmoABYACQIFOKgAmOJ0UEFwOFAAKcBQArgS0A6AAUEAMCgBXIgYRQRJAAaAAcCWgDQAFgAJiUAC4EjGICJIACgAFgCsBbQAoABQQgwLAlYhBRJAEUAAoAFwJaANAAaCAGBQArkQMIoIkgAJAAeBKQBsACgAFxKAAcCViEBEkARQACgBXAtoAUAAoIAYFgCsRg4ggCaAAUKBtV8K8scDcxNLRzWdJYm031ov+9uicADtLS0vbiN2ivhHejYvQyjRW2gpH97WP2vy8YKsLQQRQ4Jsr0LYrwUwi6I3bl3o7bgj/2+J8I9lP13v7b3qBffNadEAK/xtlYtgQBk6/RBF9AY765sSSES4WA83sAqZuTStr9b0JHDtrS5DdzEvljXwEauruLdnuuzNevHh6ZsaAFh/ObSO7hsPUKzPNh+3OabNE7U2vs+cR+ocuWhCo36466mhecM7u4Q5LUpt9BLmjaYDzgQKNCnyj7+BIOq9N2R/B/WwcRJAU8L3tJnVCe/S/ORveBexNPmlBPr9o4vxlfRL2R2o36U9o1a19p1gjdg7hfXubcylCLi5h9nUz5H42/IcJ+N5O4SN+mNKAgvzYCojvjoeSr8yyHfJ3Fv+ejpIvzrAJ2vqG/5NAkJLmBSkJ0Xmynl6+SnKKme6oLtVrQMSMYaoPL90sbTowgXNP7rtnHD2R/01tevLqAE/v0Tte0R5tGubl6ek7+WAuN1NWUfKWGSFOlkSirff49dcLeDdgamb83Eg/Rysi0dIxYNKGxHxuNDtza4S3Z9D6NNr7fRN9PD09/WadLMQyRb4cHE0cf5zEHf7A77YFE2dfo/NaBCt1iZ3nquPHl48J8vN2d/FdkkjmnEXLubI+2t/enGhhHzBtW1oZv/z07LMrRnnaWllZ2boExux53sakhf0wbihWFicLE7emExyk/P626UFO1pZWNvZeEbHX+J8bR2ueH1w43NWaSLR2HfHroec1vNEaNsgiBiz635qpo4f5OjsPXXG1sNuMt3gSgv/+UApgFDXRgZE039Iv7iW71Vkw6dm16y8qkIYDNYnzB/tues7iRCCkM5Oswv7Nxi6DPx+INLF09nJxdPIeNv3Py9mUVkk1iYCLDo4e6Bf3ouLZ0U1bE/MrL0wd5LjqPrPxjLrU5a5uK9OaJwIXxEcQY86QG42hP/8r0HLIyms5FDa78vGWcNvhOznGoLUPT8TfeF1KYSO0z9eXeBHHHPoM1ydOuTyDOHTXxyZFhYv+G2U27lgZN132261BZrOu0ninM1MW2wy0GbnhbimnwLSi3C80FKm5s8LdOnzTnUIazChO/m3I4JiTRVjySOXZyeZ+a+5VslGEWZl970l+azmbaFD/J/Pucge33x9yBeUEVuaf3tbRh/NoCMqmfHme/rqSa1dtyhJnm7F7XlWz2VUvd0XZuCxLqeXEY8Ux7e+3NqMaQZGKa/McXFanN+qI1Ly5eelRcUPZeTmA/wIFvlYB0SMEkU4Tr24VNMRClTNp4QUFtzCvusSrL7H7PFJ288pTo5AgQ2zVAlKym7Ztz7744yf2xgYTEpdGr7ldJRwCiVKpVJxML6nSRxdPnb+bi8jKQlQKteF8pPD83iStcZOc5ETahmM9OXu22HXO0iBDOQJBZfDk8XY5Sbc/YXdlefvRk/wGacoRIJm+viM9VXLe8sYwopMTclTCfuJsN03OJFGmj0FvGVzdnZNX2SELF7jryOCltD2mRBo+TrzHHazgCVBdycecohpYUmWAi+3XfaIdIuDxzMr87PxyOiTX29JpkApHfNbTxGSGV8x4oiKBoGQ+MdqDlnzjGX8NhKDrE2anCOEgZWsbg6q8vEbhIYWBvmF2TeeNQsoIooEC7VJArGslck6h3ozYq88WW/W9cfXFwNA/uD0GUiD6BPCM0Z2ycdEz19iEJ+t8fKUF2wfJyclBdCrbeNGZp9NwuLqLx1E5Lbl6f0XPPHgw133JvwZtLazSy0qqaJkbh/tu4WXDpsooDqjD/mZ8Stz+V/yNVyU0bP7Cqilj+LKE+zXBJjbE4lV1ejd1aQi5lESverw8KJ0vK4sip0upRXBqKqGrt5X8c2jtuK15VA2bYb+sWxao23HpCeYztqxh7YqfG7yoVMrIc1Ls2hgbJYhZRaYpGarzF6Ak1TWVKJ/ImCuR5Ngp14u/fIS5IRwMw1hZG31/G8UDh4ECHVCg4+1ZVOKyDqH+uMVXHo0xuPrGcujffVqPeQiSEhACt34m09g91Y0MFbD7dy1KVIZwcG52Hs7Qje850LJrey/KjDrkgx1pI8hoaqlohG6+vsaR26PqA5J/cPGSVMt/D//tqi0NsR+u8ZzZ5Ak3hCWLDe+aXoCXIOBgNpvbA1EaNmBqFiCoWQnxKprqcobuey/ONW7p6iR0PGdu8pyJg6vfHPk1Ona7i/dmLyHOtHkWzfNTJIav/Dd8JUr/cmfT5Nl/nPI+PU1fSllFtppUzsThOF6DVUGqllNVaVZqESmCQ0ABMSnQurN3KmEp21B/qVs71577gP2hxU0cKX1w6dqjjyVVlNqSrCsbdyRLe/oPbnyGw0rfEOI9NO5hwzqklO3QYPX0g/ufkGFa3oU9FyschvryUmK/PhafaTt57KB2+D9J2xHD5K9v23GviIbiYHp59p2Ld7H5DUqto+A1jU00pTE3VXLz9O3SpiuREqrqCiXvsmsaPR1e1cBAMTfzJbaQidY+vZbSxsKlvHtkQPXJuEOZJKxjw9SSrJtXHpRgqaHk50m3skqoMA4v3UtWApKWlWkUvpUCQmsAzku7kpFXzUIhSdle0gS8jBxWDJyEjb+XVMrBI1m1CFyTdfhgqrSXn/XXuhI4P+Hv2DXHnjOEGgEOAAUEKiBmV4KTtAwLVHycXugQ5sN99IsFdun9vYtG+dhb2vhEb8uxXL5/XWCTBRaUWl5QUFiOdfj6IGv/6/Zl/e/P9zC3C99Lj9j6Z3hvjpXcR8CMYVODNdocknBSkrH5Ze8G++y4SGcLorXLcOy5RjUWSzAdtyoGOjAqcMTosRN+f6plpdN0+CA5eMI859z1vg5Ozu5Tjn3meBQpx2lL3XPWhgSGj/s1QZrYxsQKUvJaHb9U/96KUDsi0cZjdOy5bO44BmWTHh/4dbiLlYWl05ij0LjN8xwa+3prBeqVaPUv9eO1P6N9bC0sbP2WvrRes4arDKTgtWLHLNVr09wsLN2nX1efvWOFp3yrS9sZgRY/On/ybMYX8KynnYKB0+oVaPs7OKzUVT5LUgiKii5Lzqz3/+o22lnJsVeqIiPShl0+Mr6vuN1fZ03rsuux581Oa5T23Fpp245xmH7SjmkAACAASURBVFisQAriRwUcGRSf8LtzG+vaYskOJPIDKdB2G5X0XH/30XcvMVpVoei7evnIn8ePYDOqF+kvmfrR/Vquu3RdZaDkh/cLnWdvdwR+pOtE/lFTbntU8qOWvBuXi525KTj6yGe2ZB+PeVv/jiGCjt2NKwuYxlcAuBLQFIACQAExKPDTrDuIQSuQBFAAKCBUAeBKhEoDDgAFgALtVwC4kvZrBc4ECgAFhCrQ410J/GJbhKeb62Azk7CdH1u9DYFWnZ1kHnmA+4oICEABoEDXKdAJV9I90EcEy/lnUtOSYl0Fvt8JyVmPWzHZqckrcV0n5XdNGc763xCbhbewl2xbhvZWU8vrwG+gQIcUaPu9kg4lJ+zkrkYfCcsXJ2XkPcZI6FFwACgAFBCTAp0YlbSw4Huhj4QJAb/ZPc7H08OOaNpkgkO/H+vqsjKNTy/C0e4ud3aLTef+RCoe7l0wwo3DD3KLWH76XYude82y4cybiH4zls8cNXJEsF9g9ObUEt7cCvmcsC4m1N3Wgmhu6z5y4YHMhl398ItNvjbzDlxaPzHU38fD2XP6iQJs1sXMuxwb6Wplbu0eGbt+pstgHiERG2IEWMxP4g0xWBmrXZxjM7jUALQ26/iKMV62GLfJOWx+fGY1tt0AJV38xd/TZ/qRvNqbK/0xapNX2Ebe2cKUAfFAgS5QoBOuBK8XsmhhYL/6FCAVz6FuFYkJWdyNeWjF7SsP+4UEm/Be1WS/2BHp5uTsM3zGxisfRHVSHELKyanpPcAIeXEsbltSka6xIQ7bHdxkEYRyL/4YKXDacAHbjpvpQxg04+jtlEtL7ZvOfGTsQv0lU64+4JlAzbiSIhUQNlgG23uXe3D2jOPIqD2pL17e3Rtc+r85W57UOxzBsrM/fZCesO/s+asX1xnfXvz7FS5pDWVBOsGxR24/efU8eYdf6fa5f2c0boxDqalnH1mvO3vj9p07Z5e7qkBwzsHFsY8Grb/x7MnVWJ036WWicQdI6eUlk/8p9vo76dnLB8cnQUfmrL1ZjUIaw7bcSL29Z7yBgt8fN1JTU1MuL3NqUuYW1SS4MCAWKNBZBTrjSroz+kiYLlI2oUPkUq+kc0jVdWmX7ygEhlhj25Th95dOvxo0eUXEICUCXmFgVIw39Wbia5HUREI/v2H2HKpQL+swP9X0pAecJAmGgZPC7fWUpSCMQhQeYl79/l0TyjV+UOSsQF0OW0BSXb+fAvrlzq13/UdGY/AkgqL5+LFuosm0SGnSqbtqY5ZMtlGXxMvqh04JUUhNfNzmFt5WhCph0oB4oEBnFBDrWkk3Qh8J1UTCIiRQZdKVe7Xejnev3FMLOmTOkQApKyGxsnaN9T/E23YM09iod53IQQKkpKzIywVSVFaEqyoxNoE8RM48vHnb2YxcMhsHodRKlq4zh3XCP0+6t45GE9+N7Suqwqmqq/IGbtJqagoQTajd2IinrKSM9fnk7IArvDQQRq2UFQXbUi3Trq3SIlIGh4ACnVdArK4E993QRxAej0PYrZ4FC9KHMDA0WCvqSmoBLSGjT/B8U25HxmtoaSh4LriybUi797ugpFISguMQJ5Hy0nJIWUUBj6Pf2TR7F3nOoUujTRQJaNmxCd5ncU38EcfKJgFSUlPCVZZXwjhFLBVGRUUtys9dgiCBsljYoAgbMKE0Gh2HTcFwkIamupRlzMkjYzUF+A4M29SC2iSo8CAOKNBVCnRigiPIpO+FPpLWN+xT9PRRUXs+60IwCg7WTT8ceyRDPySE4wqwQDANCzdK/zcuKbcOxiFMcl7GxVvvGp6swlk7o3wCViRxgI4NAS65fvBcLg1lFFw9lFDj6OPQC0Oz1NXRFfRM9TDXgFJen75Yj1gVJBXmv3TcfYw/nDt4j8RGarOOHEurH5PgexvqSbx7loWt6CDlyVfv13LdEV57SITLxwMbz73Bhjwoq/ZzZkLi8/plXUhVTZWFcWoFPA0WnDn89sy62A0XfpSvjwkuJIj9hgqI2ZV8L/QRwSxmxSjGrmBLM6LD0mROf6pNXOLj5uYe/OdD2qsdozzc3LzmnOUAzbBA0A8K6f8q/Y1pSGADrpnQP+bff0Kr98d4WGFftQieuSO9/rMT2AUoo7KooIBEafaim4Spq17GPG9L26FbK0Pj1g7nkN7kfeevtH26JDg0Imrc7EPoIKLAl10aqhfLdPPvg7OW+1jZBq39YuZcP9qAlPzmLjRNWzAkJHLCmheaFvzv/eC1R8TtnSR7Ya6/DdHCzjdmY1IBs358gtcOmTlR8fx4Jwdn54D199t2qaz8tFMnrz4rBy/vfcPe9kNn1WN2Bncr9BH2MHiy6wmna6en6okNJsJ+tNZ7Vt3ajDhP0f5HPM0RfhEXMOZu6JkL882+RXbiMRqk0p0VEPeopKvK+hOij7pKSk66cH7GQ0bwguhBwI90pcw/VdriXXbtOukgNfuomV2X/M+WMsFwxrm0n63QoLxdqkCPmeB0qQogcaAAUKCTCvSUCU4niwkuBwoABbpWAeBKulZfkDpQ4CdRALiSn6SiQTGBAl2rQI93Jd8HfVR7cRpx2O6cdr1e2/EKbLYzuOOXt3UF8/ocos+mF11kfJPc4bw9I8ynX+JsThIS4E+HJ3u6udkTjd3XPxG55UlIAiC62yjQCVfSXqYOUvjfKBPDhjBQZNviCkN9c2LJCBeLgWZ2AVO3pjXZD1cvGztrS5DdzEvl2FugAH3UbdrSVxhC0J8Qn5qW/FeoSica4lfk2+WXsO6tdPJc/7S1d2xvr+lyC8WewTd6GAzQR2KvOZAgUKBbKSC+m8HPhD7iViHjw9lFYc6WRGvPsX8kNXyXnJZzZX20v7050cI+YNq2NN7r95x7lMvMuE2zx44McHUaMu9Edv1eGZTy7tzv0QGOluaWth4jFpzMbph20N6fWjzUiTjQ0nPS7kzOJmXmjQVW3qMnBTvYeM/ZvGmKp5Wl5/wLRdiL78J5SzjsU6F2nquOH18+JsjP293Fd0kiuel2Z7gk+bcQ1zH/POUwlAQGtOJUNHHIuMl+traBS/63LsrZwjrwtxRuIgjp/j8zgxwtMcqT55jY8x/4O4jg4tsbx3vZcOBMv57+wGhMWKAyAjPlRMKfk/6Y4GdvZWll6+QXtfmuUAu5J2MzKbOweasmR4wcHugbOnP3E97epA4rQ806tjDM0cLc1js6bs0Ec1/uNFAoiUogLgvO+W+yr6ff4ivlX87O9cVQVD5jd7/p+smkUCG/3QFsO+lXBpj07Nr1FxVIw+U1ifMH+256zuJEIKQzk6zC/s1moyj8+UCkiaWzl4ujk/ew6X9ezqaIyhAuOjh6oF/ci4pnRzdtTcyvvDB1kOOq+8zGS+pSl7u6rUxrnkjdxWlmof9+wHJrHhDymRhiRHwBXB/NePi7h9OSFN7VlNuLHDzWPWJgB9k58aOsPOaefF3Fhmve/Bfj4LP+Ma1lao2/ay5MNTVymHHiIwVmfL6y0N1qwrEiLA+k5s4Kd+vwTXcKaTCjOPm3IYNjTnLimWkr7Ps7/5JQihlYl/6bl82cazWcxJDyhHlOtlHb0ovpCMokZV68+Y5TBParv/0HmI/cnF7KYJYmr/Q2izpSDKOMpPmWHqvT64qPRA20+yWpqvLyTNuow9gBdk5C/JmHn8gMhF31YleUlfOq+3S+qcyUxTYDbUZuuFvKqRVaUe4XrFCMhNlm3hufUQuuLPZ3j4l/Jao+kPKTE81Ctr6lvN0aYuq97jGl8OAY61lX6lC45OxUG6dZpz5SEBYpfWOYuX/cc6yW4C8nY6xc5p7Pp8OU7KNT7IxMp12s45RUiDJcO5l3ltl7rHvMbTj8QE9ePNhp/uViLI5d8+nRww+ijETZubuHG5sO25ZFxXKquLHIzXVZKifXDirDyNzoazlyy1Mym12eviHEtL/3xudYfXCqw3xeIqeZYLamxzo7rUrnNEhRbQarcUePdU+aFolXsla9pr7EPf7fToxKWjF1FNzCvOoSr77E9pIhZTevPDUKCeJsvIWU7KZt27Mv/viJvbHBhMSl0WtuN2AKW7tMlEql4mR6SZU+unjq/N1cRFYWolKoDfc2pPD83iStcZOc2g0DaJ6F+NBHeK0hE0cayeGl+gZGh2g8vZWO3Tfr7py8yg5ZuMBdRwYvpe0xJdLwceI93jgAUnIJ89HE5OhlNdiE8SmXQ3BEK26dut0rcuksJ21pCMMhWQ/15VPnMLyAbeQkR00pSU3XAAf5zzn53G13BGzLsKyarq5SbyMDecV+uqqVZdh6kWjeEk7CfuJsjK6EXS7Tx6A3B1eABWbuuV/GLf8YunvnpDa/I0roa6gr10+/j2RfI31ZTd2+khWkKqQu40aGQsjkEUZykIS649SxtkW3br6H0Zr0m49UgmNCdaXxcgMiJwVyNjlygghleCe0/C8ej2eQ8j7mk5l4BT07+/5t1reEWdDQgRg8ClL1DHNjpd7k7MrumDLw+1u3im1HT7RWJhDUHGIibUTvKvgKXBZWyFa9pmXBe+xvsa6V/FzoIzUNNV4/gVQ1VHEZFVUIQigl0aseLw9K58vKosjpUmoRHMZIgmR7yfJOJxAIODabsyCHVJSScH369RG0JRCvqCTP2/YrIUFgsxGeM8UTsDQIGM4ESwNHIOARmOORRPGWcHhVnd6t+iH85d5DU6d+n5Kuvpk00KbV4RbNmSAhgcMTCBCWLSdXAgzDSHUlGVW3U+crIK+hLl1VSUZQRXIVTl2LH43X1FaHSjiJIWQhyqgJKjt2gbTbou1z/9m/ZapvdpWC2ZDZv8dGmIiGzHEAVDzB8EpK8rV5ZMyVSHRIGYRcWSWtps6THa+qIcw2vjpfgcvqsW6iPYaL1ZX8XOijClIFghuAdQW0klSJU1FTxuMlNNXlDN33Xpxr3LyHCNnzj1fT0sB9+fwFwakL6VFtViHmYeh3RfKWcBDUeuhJ6Bf1584liocmjF60wf7cOg8VATAloXlzvBpeUVUFKi/DGAW6WOpoHamcoWymgoc40TXVPMAKDq0m1/BSwasIUYZ/mIDnOdfGPPHq9tFr7aNxCDXvyqroVXHXfPaHi/wGCUoqwVBUKpiQTFIZuZeKsmRHlcErqygz3pdj61KYHEglqQLG6XANEkiiagOXBWEsqqbYK6Fq/jAHWreyThXtx0QfCZQEKU08dB5DHzGLEg9dK7cPcFWCcPLukQHVJ+MOZZKwZVWYWpJ188oDPiRFUBqQmk+ET93pTTszSjBEK5ucdTX5fccX6DrGW+LbgQ008JIDYjYtMUhaHntVhI2C7ObEKTj6OdRei7+QS0XZFQ/2HXvax8fHmAApOvvbl9+6+hKjNqHVDy7cql+OFqkMQdewX/Xzh+8b57E46tvkhMxCjEOFl5SVlYSk5GQlGr0dC1vI8B4a97DZo1bWu/Pxt4qZCPX9iSOp0h5+1pIdJFFh/Ctfb+0nJw8/q4Lhyof/nc7k3wEEk6hE47LwKmpK5Oz3pe2uTsrTQ7/FbrvBWUbvoUHMruTHRB8JrFvCAFf9hwt8rGxCNpcMiftjpDYmJaTktTp+qf69FaF2RKKNx+jYc9ki8fqQetAf8UuNHv8WZke0dBgae7O0I6MDvlkd5C01LQxBN+LPNXbP1iw5mtv6DQiBpW6IxGsP/2NLJOvAGEdzK79lmcTV2+dweNsYnmn9Jves5UNDRoRPO8YaUM9zEakMvl/E0lmqF6IGmxFtpp+t5M7larJOrxrtbm1hYTf077Ihfy4N4IN0OcdQanlBQWE5hrVtEqSsXdTOTnSxtI86JT1py3JP+Q6TqHBS1vO2/Kpza4arpX34HsJgOz40VwiJCicKl0UwiZwbRt011NHJ2TViR1abHgV7knfz1Mmkt/zxnGjtu+fRHrMzuFuhj7pnXf68VmEPgyNCH4+9v28kNjQUU2Amzbfb3Odw0lLLr518dsQQeupS93mFc68eGc+ZMPbI0FPsBuijHtm8gNHtU4D95v4TldELI3qsH8GKKd5l1/bp9jVnfQ/0EfwhYVdCa44yXt0xKspBTWy3v6+RQ8zXoJSX5w+kFLaapxP6eceMMMf41yB0rQISNitvJ3VtFl2eeo+Z4HS5EiADoABQoBMK9JQJTieKCC4FCgAFul4B4Eq6XmOQA1DgJ1AAuJKfoJJBEYECXa9Aj3cl3wd91PUVIyAH1t21Ae5uzjYDB0afqmj2ToWAk79pFDvzT2+H5XeFvNT7TU0BmX0vBTrhStoLcQHoIzFVrqT76qS7d07NMf8WLzqIyeZvmgzz1kLbiP0FrR5EfVMjftrMvtHDYIA++mlbGCj4T6JAJ0YlLRT6ydBHAkE+jDe7Ix3D/31N52hDe7ltmMOoPe+w7TVo5d1tM4Z72VkSiVbOoTP/SePszRBOFeLMF6xG/bpsYvjIoQF+IxYdfyPy9XssK0G8JWEtmJm8yNYlesmCseEjw/wCRv92Jb9+YoIU7A8nRv97ecv0YQE+ni7uo3Zx3/hGKh7uXTDCzZpItHaLWH76Hd8YRs7FVRGuVkQrt4g1iQ3oJxxa8/y/BcNcbSytrAe7h80/0frFnFYNJ/Pw0jHegy3Mrey9x/yWwHu9RSD6iH4/1tVlZRpXXo7Cd5c7u8Wm1/8UVmAQ/20U+HriSiuIy8+DPhIO8mEXnJnmMmT9g2ryvTV+ztPPfObSmODilMNH736ooMEw5cPxGY42sy6TEaFUIZT1dINnf8sJRz5xwD+FpybbBcS9qIc/wQXxEWYTT5Y3EqeEGyO4bhm3f7Xq7zjvainGZKK/3xVuExmfx2NGwfn7Rhqbecw9+p6CJc8m532q5ICVBEKh2Nk7hxL9VqWUsNhVz7ZHmve3XXaHywPiAM2Gb82qhVGYXvb6/nOMzSQqwPlHJ9g4Tz/0vIKFIrSijMt38jnGCEEfCSNX8XKAizIu3Hpf1yiNqIzBMTEr0IlRSSuIy8+DPhIO8iH0G/nnOuvkxeMmLE2z++PPkX256xp4bc/xY936q8rg8XL9hw+zRz68+8xjGQmiCnHvIdKDw0J0seknQSdoqO2X27caSY0tbzHCjWl5ZsNvSMltuK8mVvfS/UODB7y+eae0YX2BoBM6bbSxHPYuL0FZX08FLwTwgxSm3v5gHD7ZTUuCoGQVM9GDcwUnQBhSBa0pys4rpaDSGoOcLTnbHIUHOPfa6SeGk1aMs1SVwEEyfRxD3XV5kglEHwkhV/HTx/dxHOZj3OtHeg9ZuHLd7ohY10p+FvSRSJAPpOo6NkR+2C78nI0u9RgQtO7Nua1bjqW8JzFRCEcnU3pFsXiPYARQhbhtBJJSUub3TmlFRS5WCOvcgpqPSGMEXcBJXV5JkZcYHgMG4SorMNJbH965eAzF1LTzCwH8oBKVZEhdS4OXirSmlgqe940KvG7Uxs3VO44tHbmmEOnrNGbZ+rluGsK9CYcyQujTt5W/EYY+krAICVSZdOVerbfj3Sv31IIOmYu1BQvRC0S3QwHxVoSsQ6g/bvGVR2MMrr6xHPp3szbJM4YgKQEhsIg1dry6kaFCycecWpSoDOHg3Ow8nKGbAa/FomXX9l6UGXXIBzvSPEB4PA5ht7mVm3MRYWBosFbUldQCWkJGn+D5prx7oIaWhoLngivbhrRFFOMkIRLkQ332z4ozKuPGsE8s3+Fx4hcrLEH41c4Ff7weeuDMLmvs3ktLnO+0Uciz3IZolFFWimErNSEOVohEUzJTru+OjRA2ngQijWkhU/1PpKqsDCOqYJUPl2MgN2WnJoJymT2NAS9YGaRATQX3oroGwfXCDGPXVNUi9fhCWaOghVuCFuJY5U93zpr02373G8uthTYzSENbA35TiAFTWuxkE4Y+Elh9QooJor+lAsLvF19lxU+CPhIK8kErk9cuPK+z5K/Y1f9b3PvMwvUpHPoGQqmtk9ExMVLBehQj78LZ+22sonKkZz45Ef+gAoarnh08/qS3t3c99BWvqq+vkPPoManBbwo1RkQN1qUePpxVi7DL0v47n2Pq495qVNBwLcE0LNwo/d+4pFyMQ4QwyXkZF2+9Y+LwOp5+Ju+vX8vlMJ5Kb164V8P3gsiXBwl3sisYCI4gKydNgGTl+NQPTopIwfGZvn5zTmPcOH4gGARHWOcc2HD0ZSUbhzJKniSkFXBKJhx9RDAKDtZNPxx7JEM/JITDDm4z9HyqUJtF7A4niNmV/CToIyEgH7jg7NKVDx3X/zG0N56gM2LDOrv0FcvOfYYl7Wf8Fly8aVhw+JixU7aWGFootBxVtWoKkKLjYOTfkfaWbjNT9JZsmWPVgCyWcZ210uvTWm/s8xgBmzIxYpEQY1ol2SQC39fVrGBNoK2V38q39us2RxuJ6JFCAD9Y9ObV/W/ODgkbEbnwlqwJf6qDw6hyqdtnBNpbWli7T7vZ55cNMbxxHzd3lFVTXFBQUtOEs0TQjdq+b7LitXl+1ubWrmM2P6jhjYqEo48I+kEh/V+lvzENCeQtq4gqKSfTnk8VaqOE3eNwj9kZ/DOhj7CHwf7TyLHpcV4Yl0zsAXsY7PSH+v6kZcKnHWLP83sm+ANQhb6nfO3OW9yjknZn3METAfqog4KB0/kK/AhUoR5RmULXw7qZ9QB91LEKgQtTD557UdfyIkjBckRUy8gf+/ePQBXqETXUYyY4PUJNYCRQ4KdVoKdMcH7aCgIFBwr0DAWAK+kZ9QSsBAp0cwWAK+nmFQTMAwr0DAV6vCsB6KNu0NAA+qgbVML3NqETrgSgj75x5QH00TcQHPlycLR5zGneJwKb5odWno6xmHqe/xHkb2BJT8viGz0MBuijntYwgL1AgY4p0IlRSYuMAPoI22AD0EcdRB8J4zBRM+PnRvo5WhGJlo4BkzYkNuCZsH08gvhMcElK3AQva6KFc9jCPxcGEHnDB+qVmcTQHTw+A1JydCxx7BH+l9YFwaKYqWsCPL1H7XhJe7R5uJenp6f/8sTajnWnn/rsr+efAPTRpjuFNJhRnPzbkMExJ4u4iB+APuoY+kgYh6n24Yn4G69LKWyE9vn6Ei/imEOf+QglQXwmuOTMZBvXeRfz6Qj144npDkamU85VY7VBuTzDLGT7ez5+6kiUWdRhDolJFCwKLvpvFBHDcLfmJ9Fz75xL+1SPoPr6fvOjXtmJUQlAHy1w15HBS2l7TIk0fJx4D2N+YAgDgD7qEPoIk0wgh0nefvQkv0GacgRIpq/vSE+VnLe5TRASLflMdRk3HyoFRwfrSkOyRiMn+nOoTiLCV8CisNSkDdxHuOo1bKsUkf7PeUisayUAfYTtsAXoo46gjziuRBCHifEpcftf8TdeldAwHgGrpozhy2dFcbtpCz4TUl1JRlXt1HgOBK+qrgoVi+jOXwOLEpEcOMRTQKyuBAfQRxhpA6CPOoA+wlqhAA4Tkn908ZJUy38P/+2qLQ2xH67xnNl80aI5nwmvqKoCVZZX8PhJSCWp/vkLXoIAsVg8pAFKp9J4bV40LIqTNDYHAQ6iowqIHgl2NDUcQB8B9FGH0EecFtaaw4RS6yh4TWMTTWkMpFdy8/RtDqFfRFBw9LWvSjiU8JmB0nLPHb5ZxkcrSeoa6pS8eM75Scu+lvSOz0kRBYvCK6ip4PPfZvPdjohM+Yfg/IS/Y9cce459WODnDmJ2JQB9BNBHHUMfYbOV1hwmgum4VTHQgVGBI0aPnfD7Uy0rHRFsJqwD47VHrIsLLP9fqK2Vz4LH+i79+acTBo5bGkHZNTJgRNTsgyxTU/4YXCQsSt5r6uwBGQvcHJydPRddq4fDCfcSaPGj8yfPZnwR7eyEX//jHOkp68nsj7tGWEcdrl/H7ylmf5Wd2McrvGwXJzO+6uI2L8Iemth4/5mJfRijG4QuMIadvSPUjPcE5xsUEM7fH27qsfo+5Rvk1b2zEPeopKt8LEAfdZWyIN3OKICSH94vdJ4907E9ePHOZNT9rxXvsmvXlRegjzqmLUAfdUyvrz0bUos4kBHxtVf/UNcB9NEPVZ2gMECB76VAT5ngfC99QL5AAaBAuxQArqRdMoGTgAJAAdEKAFciWh9wFCgAFGiXAsCVtEsmMZ6EVp2dZB55gPf5cYHpYnusF3q7uTlampgvuIF9/Q4EoEAPUKATrqR7oI++RmNs77n5sN053fWlIkgl9H/Jaan7xumJfjHra4r+Ta6Bs/43xGbhLQFesL1t5puYCTIRqwLf6GHwd0MfiVUskBhQACggTIFOjEpaJPl90EfsJ+s93SJiRjhbu0zc8NeCIbYWzhP/e8/da8EqSt4yI8TJkki09R6//noBC4tjZ26N8PYMWp9Ge79vog9Gt/GbdbKQu2FDOGuntXQiMkVrnh9cONzVmki0dh3x66Hn/Bev0coH/04LGGxuYR8wY/+LuobNYkjFw70LRrhxTneLWH76XTu+S97KHM6Mieg3Y/nMUSNHBPsFRm9OLeGNt5DPCetiQt1tLYjmtu4jFx7IrKrPF36xyddm3oFL6yeG+vt4OHtOP1GAicDMuxwb6Wplbu0eGbt+psvgJakcybAhRoDF/CTeEIOVsdrFOTaDE49Da7OOrxjjZYvRiZzD5sdnVmOpo6SLv/h7+kw/kld7c6U/pq9X2Ebe2a3MBhE/mgJf/zJut0AfsR6vc7ede62SfHWOtVn0yZK6tFUeQVvesFH6878CLYesvJZDYbMrH28Jtx2+M5uLwMECRsQhDt31sf4nN044a4d/UZN/hGaK1qYscbYZu+dVNZtd9XJXlI3LspRaDLVTlbTQwXZi/Ns6mPH56q8e/Y0j4gswBA87J36Ulcfck6+r2HDNm/9iHHzWP6bV58N+GednOT+p7bfnEfKZGJP+3r+lVyMoUvf4j4DBMy6Uccg97JyE+DMPP5EZCLvqxa4oK+dV9+m81NnPN3qbmAeuuJrPiWCS8gpqEPbHPSMt/H9LKWWxhYsPiAAAIABJREFUq1/uGmPR32ZxCofzw371t7/5vESeHcz0WGenVelYPFxycYa9Q/SepyQmTM27MN/DaWFSFZ8XhF0SYP3LTQGmt2ozrcUFMT1UgU6MSroL+givqa+nqKCrq6FuYKAm209Xg1xWjrCenD1b7DpnaZChHIGgMnjyeLucpNufRKyOiGbttLqBCMwUx3qamMzwihlPVCQQlMwnRnvQkm88Y+FYmbdS2d4To0x74aX6Dpky3Jg3rYTfXzr9atDkFRGDlAh4hYFRMd7Um4mv+btXW+UoMoLQz2+YvSKEg3pZh/mppic9oGCnEwwDJ4Xb6ylLQZgx4SHm1e/f1W+ZxY7iB0XOCtSVxv6SVNfvp4B+uXPrXf+R0W6aEgRF8/Fj3WRFZoiUJp26qzZmyWQbdUm8rH7olBCF1MTHbe6ObdVmRGYCDvYkBcS6VvKd0EcEAoc4JCFBIGClwRPwCBvG0ctLqmiZG4f7buHVBpsqozig1Sd0m9SUaNZO6yoVlCmOWUWmKRmqS/FOl1TXVKJ8IrNwdDKZoWqszgNw4TV7a0LcE5CyEhIra9dY/0O83zCNjXo3Tn5a5yk8BlJSVuQdhRSVFeGqyhoEJw+RMw9v3nY2I5fMxkEotZKl68xumFpB0r11NJrcSLBNTlU4DBrEW+mVVlNTgETts0fLSspYn0/ODrjCSwNh1EpZUWgoToZXFuGmgiM/qAJidSXfD33UrHY43UVGU0tFI3Tz9TWOAgh6GNymBd2mTdZOm9XP7aNSyiqy1aRybF2Bc09nVZCq5VRVJHEyqiqydTW12HIE1lGRanI1LzW8hpaGgueCK9uGCNwLxnGKCNI+Bg9KKiUhOENO8uWl5ZCyigIeR7+zafYu8pxDl0abKBLQsmMTvM/imqQG4ZuNSCElNSVcZXkljFPEUmFUVNSifKskCBIolx+EeUiURqPjZDDzIQ1NdSnLmJNHxvL9YjOBAD2ozfby453QiQmOIDG+F/qolS2StiOGyV/ftuNeEXanhOnl2Xcu3m2Y30ioqiuUvMvG7tz1oaOsnVb58SIkbPy9pFIOHsmqReCarMMHU6W9/KwlcZI2AZ64tMtc+iv1zcVrb7jLljiCaVi4Ufq/cUm5dTAOYZLzMi7eetfwBBXfx1Cf8ObB0+pGK7lXwVk7o3wCViQ1G2LBJdcPnsuloYyCq4cSahx9HHphS8x1dXQFPVM9zDWglNenL2IzLREBr+PuY/zh3MF7JDZSm3XkWFr9mATf21BP4t2zLGxFGClPvnq/luuO8NpDIlw+Hth47g025EFZtZ8zExKf1y/rQqpqqiyMxirgabBgC+C3Z9bFbrjwQcQEVPCFILb7KCBmV/K90EetBZWx+WXvBvvsuEhnC6K1y3DsYQp/LICdKjl4wjzn3PW+Dk7O7lOOcV4W6yhrp3V+3BhIwWvFjlmq16a5WVi6T7+uPnvHCk95LFrRe8WWyKq/I4KGh0/cWq5vzB8pEfrH/PtPaPX+GA8r7BsNwTN3pJc1diZIJfCXRQMz5joTiVaj9jVCklFGZVFBAYnSzMNImLrqZczztrQdurUyNG7tcC2sXuV956+0fbokODQiatzsQ+ggooDxWZNyYMZs/n1w1nIfK9ugtV/MnOtHG5CS39yFpmkLhoRETljzQtNCnTeDwWhDcXsnyV6Y629DtLDzjdmYVMCsn9vgtUNmTlQ8P94JwwcFrL8v0oVxLWDlp506efVZeQuvKURlEN0tFegxO4PhnN2REWnDLh8Z31fc7q9bVkz7jcIeBk92PeF07fRU8b3Sxn601ntW3dqMOE/R/qf9Voo6E34RFzDmbuiZC/PNvkV2okwBx75agZ7SLQH66KuruNtfCOdnPGQEL4geBPxIt68rEQaKd9lVREadPATQR50UsBtfTjCccS6tG9sHTGuXAj1mgtOu0oCTgAJAge+kQE+Z4HwneUC2QAGgQPsUAK6kfTqBs4ACQAGRCgBXIlIecBAoABRonwLAlTTTiZm8yNZ/8yvwqlT7Wg84CyjQoEAnXEl7MTZI4X+jTAwbwsDplzh7zUQF6psTS0a4WAw0swuYujWtyRa0+ovYWVuC7GZeKq9/D1w4a0dUNgKOEYyHL53j26cTqghI9HtGCVUGe09nuAMPI/A97QN5/zAKfKOHwT0FfUTo6xLZ94epXFAQoMC3U0B899/vgz4SxdoRCPgRhjhCik7N9vP0dDQ3aTrBQb4cHE0Mj922LCYyzMvJffSmuxWi9tcJoxChlXe3zRjuZYdhmKycQ2f+k9bwOW2kYH84Mfrfy1umDwvw8XRxH7UrizO7Ekgh4hoz/jiJawH8blswcfY1Orep0HKurI/2tzcnYmiladvSuK/fi1Lm27UvkNPPo8DXc1ZaYWxqEucP9t30nPsxWoR0ZpJV2L8c2hD8+UCkiaWzl4ujk/ew6X9ezhb5eVW46ODogX5xLyqeHd20NTG/8sLUQY6r7nMYPPxQl7rc1W1lWrNEBLN2BAF+2kAccT5h6xf3sgGKBBdhk7NBI7a/pmIMoM9HxlsGb33bjJjUXD5hFCK4OOXw0bsfKmgwTPlwfIajzazLZB4mCM7fN9LYzGPu0fcULIJNzvtUCaNCKEQcY8zGHeNijVD2261BZrOuYqQkpObOCnfr8E13Cmkwozj5tyGDY04WYWAlbhCsDHYAqXlz89Kj4vrz+KeDf4ACX6tAJ0YlrTA2Cm5hXnWJV19i27eQsptXnhqFBHG2vUNKdtO27dkXf/zE3thgQuLS6DW3G8iArV02SqVScTK9pEofXTx1/m4uIisLUSnUhqEAUnh+b5LWuElOAvflt06uBeAHwnUQcYSlKDEwMMwUgwYQeltba3/OzW9jTVYQhQiv7YnBhPqryuDxcv2HD7NHPrxrQpwn6IROG20sh22GIyjr66ngkY5RiOrunLzKDlm4wF1HBi+l7TEl0vBxIncTssgAKQz0DbPT7kT9i0weHPzpFBDrWsl3Qh+JqLSWgB+MxPEpcftf8TdeldCwbaismjKGL6utXicrJ8vb80rAE2A2u43tq4IoRL2ob85t3XIs5T2JiUIYCYnSK6pJrvg+/Zot9HaMQoSQS0n0qsfLg9L5dcmiyOlSMDiKWg/l1YuoTnCoGysgVlfy/dBHQlk7LQA/nUcctVmXAihE8KudC/54PfTAmV3WqhI4WuJ8p43N3BfEYTE1BqEUIrwEAYf5MuxaCIMQYaM3TsCraKrLGbrvvTjXWJDvEKpMmwUBJwAFOqKAmAe43wl91G7WjpgQRzyFkYLjM3395pz+0mycIoBChFBq62R0TIxUMMfNyLtw9r5osLwwChFe1cBAMTfzJUaxR2ufXksp5E215N0jA6pPxh3KJGGoIZhaknXzyoOSepParQy/0cD5CX/Hrjn2vE1Ka0caGTj3Z1BAzK7kO6GP2s3aEYo4YmVsCHZ3c/NZmljz6ehUTzc3z/H7sttYFUFZNcUFBSU1zcHOAihEkvYzfgsu3jQsOHzM2ClbSwwtFEQDUIVRiKQcpy11z1kbEhg+7tcEaaIBbxQCKXmtjl+qf29FqB2RaOMxOvZcdqOrarcy/MaOFj86f/Jsxpc2iv4zdA1Qxo4p0GN2BvcI9FGPpxAhBfGjAo4Mik/43bmd69oda27g7B9XAXGPSrpKKYA+6iplm6aLkh/eL3SePdMR+JFvIfePlYd4l127TpvvgT7qutJ015QhtYgDGRHd1TpgV7dWoMdMcLq1isA4oMBPr0BPmeD89BUFBAAKdG8FgCvp3vUDrAMK9BAFgCvpIRUFzAQKdG8FgCtpVj+dRR/VXpxGHLY7p2veymi2M1j8zYqVsdpl8DchmMB5e0aYi8LWYLvMF3q7uTlampgvuNHub/yJXxKQYgcU6IQrAeijDugMTu2IApBK6P+S01L3jRPfR8I6kn3XnSuURIVrb2/qOts6m/I3ehgM0EedrShwPVCgeyvQiVFJi4IB9BFfEMaHs4vCnC2J1p5j/0ji75PBsYqSt8wIccLYR7be49dfL+B+Rxe7RwWYT1y//ZfxEcEeTt6TdmfW1W/zQynvzv0eHeBoaW5p6zFiwcmGl/jhwoQ1o9wsBhJd+Bwm9pP1nm4RMSOcrV0mbvhrwRBbC+eJ/73nvMyPfE5YFxPqbmtBNLd1H7nwQGYD20EgFKqxPtGqR1sjXcPWpTb5hHGL2mbeWGDlPXpSsION95zNm6Z4Wll6zr9QxNn5g9Y8P7hwuKs1kWjtOgL7VDO2Y4gb4OLbG8d72RAtncN+Pf2B0bCfUaAyLXJr8hP+nPTHBD97K0srWye/qM13q0Xs6xZGouqwMgJJVNzqs5ifxJuAcaaHzrEZ3HpFa7OOrxjjZUvkFHZ+fCbHxp+ARPW1oBMMaUR6du36iwoewoeTDEAfoTUXppoaOcw48ZECMz5fWehuNeEYh0JEf/5XoOWQlddyKGx25eMt4bbDd3KgUBiXyH+AdcyxfIzsxHi7LZQYdYTHIkLKE+Y52UZtSy+mIyiTlHnx5jsOQ4rDYRrovyrxM41Nfro5zCyIw2FiPV7nbjv3WiX56hxrs+iTJXVpqzyCtrzhJJ+TEH/m4ScyA2FXvdgVZeW86j6dV90CoVDM9Fhn28UptLI768Jcwv9+UNlYs60bCSNpvqXH6vS64iNRA+1+SaqqvDzTNuowZn1tyhJnm7F7XlWz2VUvd0XZuCxLqcUuh7+cjLFymXs+nw5Tso9OsTMynXaxDosXogw3Q/bLOD/L+UmMprnTkxcPdpp/uRjja7FrPj16+EEUR0sYiaqDygghUXGrz3xeIs8+jnpOq9KxmoRLLs6wd4je85TEhKl5F+Z7OC1MquJrKZRE1bo3tda8m8d0YlQC0EcC7514rSETRxrJ4aX6BkaHaDy9lV6Nsp6cPVvsOmdpkKEcgaAyePJ4u5yk2594a7NStiEhutjHcqWMbC0UPufkc2/sFbdO3e4VuXSWk7Y0hJNUtx7qa8IHCEgYD4/27StDULYc4qZTyOcw4TX19RQVdHU11A0M1GT76WqQy8qxdAiGgZPC7fWUpSCCknl4iHn1+3dNkNutoFCcjOHiG7HjZt+x/evALw4qovccYigoQz1ZNV1dpd5GBvKK/XRVK8vKUdbTxGSGV8x4oiIBy3RitAct+cYzFjZUSb/5SCU4JlRXGi83IHJSoBav4YlSRqC6ODwezyDlfcwnM/EKenb2/dt6xV8QiapjyqAdI1EhpUmn7qqNWTLZRl0SL6sfOiVEITXxcZs7rVv1JsHF78axYl0rAegjrKYhNQ01Xj+BVDVUcRkVVQi9rKSKlrlxuO8WXktgU2UUB9Tx/sbL9ZLh/4WHMK4SZ7yOVJSScBgPSRB/REFRkZe6hKREA4eJQODQ6iQkCASsPvEEPMLm0l3JmYc3bzubkUtm4yCUWsnSdeawTnihNRSKE1/3KK3Ma0BlyuWncx082/IlWEaYv5LA/oflTsByhWEcs4pMUzJUl+JlIqmuqUT5ROa4EnIVTl1LnWc6XlNbHSrhnCJKmXpLm/0r7bZo+9x/9m+Z6ptdpWA2ZPbvsREmGOFOeBBEopKHOqJMx0hUOLSspIz1+eTsgCu8wiKMWikrCg3FybThmoWXoWccEasrAegjrNLRClIFghuA9S60klSJU1FTxstoaqlohG6+vsYRG340CcKeGePVtDRwXz5jHBR1Qd6k7ZbFdRj0u5tm7yLPOXRptIkiAS07NsH7LK7JwkILKBQvUcXg3/ZsHnht9sgVqy6f2z60d8cGrVjqUsoqstWkcmz9gNPBWRWkajlVFUkcpKiqAtVU1/LyR6vJNbz8hCnDO8pxigjXuTYGvLp99Fr7aBxCzbuyKnpV3DWf/eGqIjqpABIVjn6nI8oIJVHhMC+KsljYshTmOVEajY7j3BQgDU11KcuYk0fGagow6wcmUXWsrTSrVEE/fir0kSABsCFFaeKh87k0lFmUeOhauX2AqxIkaTtimPz1bTvuFWE3J5henn3n4l3+/EZgGpCaT4RP3elNOzNKsIExm5x1Nfm9MLcjMAFuJLuujq6gZ6qnSMChlNenL2LzjLYCxB3Z6IxYv9b51drFR3Kak1jauppzXMLG30sq5eCRrFoErsk6fDBV2svPmuNKnP3ty29dfYmRVNDqBxdu8ZejRSqD72OoT3jz4Gl1E7QU9W1yQmZhHYzDS8rKSkJScrISDR0WztoZ5ROwIok/3uOZK4BE1UFlhJGocHhshifx7lkWViakPPnqfZ6jxGsPiXD5eGDjuTfYYBBl1X7OTEh8Xr/g3VESFQ5+e2Zd7IYLHzpe/e2pLbGeI2ZX8lOhjwRXBGGAq/7DBT5WNiGbS4bE/TGSQ2KWsfll7wb77LhIZwuitctw7LlGteCL+bGQetAf8UuNHv8W9v/2zjugiWSP4ykUAekIKooecAoSCEV6C13p0lRsgIddUU9BFNR3VuDdWU89Fbti1yeKIKgoCvZ2NlRQEQWkt0Ag2bzZFIrJhmJoOuMfktnZmd98Z/a3M7M7nzUmkU29olOL+NzgBOYADvZ3DFth9DDczcM/cPLcg8xRpNZDIgGn45WcVm70LNr0+9/P6gQk43cIL223fPschUszrPXINjMvK83dvpzSHyQkDPRZG2PzPNLL3cdvxtHGX7kvjAhSBi8/dtES7az5FuCTH+P35LKvpqrnJ6Mm2Bjo6Rl7/fl1zIYIF5kmM5i0ss95ecW1raB2fEhUHVUGi0SFl3Wav1grY+EY94Cpq58q6ymxGwlUNXZ3iMS5+c6GJD1jx+CNKXkN3ObrKIkK1/gx48Txi4/Rpa/eHvrMzuA+gT7q7a39k9nX50lUOMbTWJeJNz1OnQvTafeNoKcaWdijkq6qB0QfdZWyMN/eqwDjY9ZdmtvCoFG93o8ADYW77Np1jdKL0EeM/PQDZ562mpCj9cZLk32CKEP6im9uV1Mxa5+d3Xc9n2d0TRxqH+yjK9WuPGCizitAVJ91JqPzp3fvmX1mgtO9ssDSoAJQgY4p8EPdRDtWdZgaKgAVEJ4C0JUIT0uYE1TgJ1YAupKfuPFh1aECwlPgJ3MlbTF1BKKP6I822JtG3mz7TS+M5kE3quoG7Gvx4XGMhDAaKtD3FPgOV9JeWAuSDza0qjcFbUH4LLaA1JcJ4T6Weto6xi6hmzNabEHj6kt/vsnVePb/Slq/U90O9dti6hBHjIuY59jqY+DtyLV1Eky8DV7SYPLy6eaCXvPucGG98gRMBX4AwE+vFLxXGNVND4Mh+ghtbTEN+4kavaLZoRFQAWEr8B2jkm9M6Rn0EZJ/cCJ5wn7upAHJ2xdAnnQIMHiYZTe3zBpnZwxgQ/oWHrO3ZhQJ3saAfD4x14lCMdMd6Rz3b4uktJzzUf5W+iR9a//VyVyQEQY7Bxtvw3i5a7IDxdaYpNV6gtP4KWVDkJOxLknX2Dl445V89qYXAUgkPu0PAT98RIFR3a9A53kqvQN9xCg4OoXst+cDAAwBGk7uPz7kaQmFADTDKLh+6MjNt6V1DEbt22OzzAznXCjnsnz4MXXYOtCu/m7oFPsMcIPYgf5mhxfJKep6YSO94vG2AF1No2U3AN1GADuHBTRyMViU2orYw8oNJfGQ/OPzWKaigZ6zx0/PITL5Mw2h5Scvs9fz35uLFo2JROKe2Op/CPjhKwuM7GYFvmNUwgNrkbb2tKtJvvgMrEsiX1MTH2q4u6qjHA1Z4xlb/tkTfyxhd7QbMTkiaPXVJjIgr+tkUqlUXD8psaJ750+cvZmLSEjgqbXUpkURJP/s7hSVySHmXOQNQcXZ0+jdpcvoTltGbtLF98YeTujubsJAypRJ1poK/QgESc1x3ibI29cdX+9E8tOvvh3hN91aRYQoqx88zVaSsy9LMFWIt1Z8Y5Av6VdeqfuHOg4Ww4upOv7m/8vLK+kFnFdL+SGR+ObCioSAH2xt4JHuUUCoayU9gj4CO/K9zDbsTcoNnU1PSvpsNsuBta7JrHl5ZvOmo9ezixuYeFx9ea1UYGOHV2mZFWXleCWVAWxqiDjAjhBqWe0ikCrU3pZjMXWUBiiycyeAv3AghokbgmbAD4mEnTEE/GBrA490jwJCdSU9gz7Cy1O8rNZsu/TSip5UbL2YIod6Esa/Oxaue+G179ROAwURXF1ymPnGFo6EH1OHn954eUV53NPKKgQnBYZv9KqKaoS1sUowVai9eBu8nKIsrqS4lIEDSBGAvCguxckpotZ32OUBCHFRMYJDx4BISVEJXk5emgABP/xaFMZ1mQLfMcHhZ1PPoI9krD0pZYkxcRerKJ7W0iy7kNrqmn6qIzXkga+kvT93+jbg0zQFfkwdfrXBEVQpTiOzL1/KBVQwRlHquVscfLpAqlC78TaEwTaOI3NO771W0MBs+JK293SutqNNm+AyCPjh21QwsqcVEO6oBMdGH+3fme+4yUGRs65AL7q9+88/3hVWNojKDdMfE7k3fGyLVyuY1JK8vPwSgBfjBgmT37ctWxUVZruvSnSI6eTNG/xYlxezIm3PCZr3drcBXI5Ms3ZSFh521JCT+PH7LThrKKIms1a5hcd4u+1SkZdQNtLWk85pTs5i6lxdAJg6NFHdsLPHQtWJjVnrvSMuVzHry6sqiaGUC6LE4VN3HwgdoRkctzI/cq77BSlp6aEaIzlTHZQqlLEMUIUUVGSkVM0AVehZc+4svM2V6CnmR0XF5VzjLkZZilYnh3uvy2pAqGV11CfjbfcTRchhCVv9BmqGbIopjtroYbSIJj7QcFzsn0EabRIY2YAfKb6An/Uf6hUMJsTGjkMpzAKN5O13LMDPp4hIB/062VEeYyyU37DTsAA/l8MA4GeI2nAjUivAT31szHznP4rqCVIqI8wCllhycuWjAG95LWNYgJ8Hja5Lx6EgSxj6pAJ9ZmcwRB9h9S8I+MFSBsZ3pwJCnuB0mekQfdRl0vZ4xn0K8NPjavVaA4Q9wemqivYi9FFXVfGnzbdPAX5+2lZqs+J9ZoLTZk1gAqgAVKAHFegrE5welAgWDRWACrStAHQlbWsEU0AFoAJtKgBdSZsSwQRQAahA2wr8ZK7kh0QfVZ+fQfLelSN453PbXQEjBbpNWS8sBbyk1yWh4fI8kkPM0y4yvoXJjPf/+OgKZOUwPhyaTrG2NiGNsFn7oOMfJuwSefpQpt/hSiD6iH87Y4J/fhr0EX9den0seCsxPj3j2n895L/jquiNtWy8tcKcsvYhr3ds7yXcrkp108NgiD5CWwOij9rVJ2GiPqmA8PwvRB+BTXXnFzlTHGYefl+dusKZQqHYeW7MYqFguxJ9xOp3tLenl3hakEkGlEnrUpoITXU5iWuDnE10SXomLjO2ZHxlTSPQe5Tl7NiYuZN8XazMxyxIeMOdvDBrX5/5T5CLGVmXbGTrs/D4m6ZpR132iaVe5iRtMiVk16MasMmh4cpCffsJIW6mhvbz4mJ+o+iTKWHnAHEKAwrFsrExPdyYEnXsWOREVyd7G0vH8OTylhsXGYXXVrlbTdz6sBJrOyOz9EQQaczk6U5GRmPD/1oTaKFnMHbVdVYmSPHtrbNdzcgkXSPKxOizbznfOmYUXN04xc6QRLbw/P3kW1pzxnyVYVnJLzA+payb6mSiT9Y3MncKjLuJaSF6MjqT0vFcEDXd33fcWEeP2bsesJkayKekNcEeNkZ6wEYb38X7HjWjNvgrQ31+dLGnmZ6ukX1Q7Oqpuo6saWCr+WZj1kpLi2h2F8MhpXd3L/SxNiCRDKz9I0++RnedMXL2T3ekOC1NLPlyer4j6JEOk3a97KrJZOf5KBB99KGchtArnu4M1LeIul3PVbK70UfMqnOhWhqmsxLe1TJonxIX2+hPPfoZ4JWQqhvLbQz8Ym7k1zFoBddWjRkdfByNb8hYbqJpsSipCFCWajJX2RnOu1SF2o6UJC0wNwrckllQjzAbih+dT33dxGHS9Y3LLKI1FF1bYa8TeLiAwaSlhJFtV2bWFBwO1DZelFJRdmG2UeAhcICekxR/6i5fZRquLzXUNvRdf7OoERRX9zn3Sx2TSUuaq2O/8TE1L3Gps01w/L+1AjokUnJ8mo775le1rza7a9mvuV+bf2CiwZzEGiaj8HSoofmcE+9qkcbizI2eus6xTwChivHleLC+5fyzH+sZtW+O/GasoTXjfA1aUwxlWEU33FhmYrvmPmoiN9RfWzraPOxCAYijV324d/etICMBf2vXuBFa3lueU0FJpVeWWFstS0dL7aAytEcbHcm+mx6W0+klmevdtTTtNz4B7YFisXQXJLPBWg2Z0RbmUZlsGFf8eH3b+cdfVNAZVS/3B5s6rL0P5GUF0OJmtmsetKwS+wDPJcytcWf+/45RCUQfDZMTwxNldf3cdSuzX/OhWfO7wbWIEyL6iKAyZpqvhiRBbMjYIPcBD9MywX2z5sbxi3T3xQttVPsRxAba/hagfj/5FnscgJe19HRQBjvnpPRHj6R9yC0ENypmadqJq1IBEXPMB4rjcaJKBl6OI7l768SMAkLMlMVEla1cTPt/yvnIwjMRB6kPk1BUU5MdpPFLf5mhagplXwG3uw0olIjJtLnWyui0ut/gXwb1Y6vRkHtm0eTIdx67doSQuEgrLO2IQ9TVJIcOHyw6RGO4hLLaENHS4gqkJutKlrT7dB8NSbyIklnoJKPPaanZDGZVZuo9ebdgDzVxguSvASFj0U2OaBCgDP9iCQQCrfj9u4/lDQTpYcYmmm0ZiRPRcfXSlgDYLwWwV70xPfUxGJt2TBlGdlpagdGEaQZyRKKiaXCAoeDPBjOy/3fy31HTl/uPkiUSpLUDg+2pqckveFdHWteP5xLmX/32xQp1rQSij9onOieVMNFHigMU2dcJXmGAAi6rtAJBiEXF9RX3I10zOW3cWCupVluN4GRAD5eQkmAnJxKJODod7XKNwIqDAAAUs0lEQVRIaVExbvDQwfy25hJkZPuz92OLiBDpdIQ9UQDUF3CBiIB/4BwikYAwUI9U/uhQ3JbTWbnldByeSS1rVLOgN88rCAqqg3iuQ8aXW3e1zId+SLn4MkTbkOfwN5oSRURwBCIRD4pFSyUyGAyksqycqWSsxFGg/wAlccCsQpgy5QAtpcKJJigPVMIXopkh5RjKcCBUPI0obr1k2/ytezeFOr6pkNYZM/c/0f4jgZ8QEPAycjJswQiysv2r35cDVyLSIWWQ8rIKcUUltuwEBS4gC6tM5GthcePznZOcD7KLZdTRmfboTLT7glBdCUQfsRquJ9BHpcWlCA7doc8sKy7DySvKEQgiykqS6ja7z88f0do7YHzHh6CoMgD35dMXBKfEz5u0p0uCnisYCoVqwzsOJg4N3LAjXObg1AlL1pucWWMrz0uRwC4dvVoIMgry+JKvJQhODeTOrCkuocnpyBPwaHRVZTX7gmJWllexsyHIYyjDOUwksJ1rc6EEJZOgP0yCcAj1fWJUUFTsJYe9fgK/QcIsLgQoKnkgZEPx13IpeTnRjipDkJOXo2WXAG8A5EDKUECWKssg4LqZjY3A+YuBqtbV1eNYQzvCAJUB0pSFiVvG8HPFeNAlOwHUahagPX/xNmx7zsJMA9FH6KBWUaEx5xWKSxIcOoc+4psnUpR88GxuHbPhc/LBSyUmLlayeFx/mwCXyuOxBx8Vo+AmauHz1MQ7hRxyLJ9MANjS36HmZMyOrEIaIMaVP794LbvjC3QCoVB8SmVFgYEGQfTX4JjwX1Iioy8KsBErA2kzJ9PqS/HncqlMeumdPUcfDnZwGEHEy1g4m5SkXXwGFiCZlXfOpXGXowUqQ1RTH1r55G52M08YR311LelRfg0DRxCVkBDFi0lKiDR7u0awkGHvFXu31WSi8fXZ+LQCAKjJTjicLm7rZCCK66AyRC1H+4EPjh96XMFglN3df/IR5w5AANNKkdePn4M6ISXXLt7mOEqilqefRubfsSm5wEykofx91vm019weSJBXlC1/k93GNxdaiFv78OCq6C1X0GX09gchuxI2+uh+Zr6pZyv00ZLxDiZkQ4egLTnkyL1r2oE+0rwdZqtr7Le73v8b9FEoJvrozt0Ge49W6KMCgD7ymzjpt82F6nrSLW51LPSRdhZAH5H0x+/JRS8YgD5ys7G2dohIrvpwJBS8qESZsgc8wEB5QCs1U+e6e/oELE6TaIk+MnoI0Ef+gZPnHmQC9FELxVngH5mzU8xNLSxc1t5GuwBAHzlYW9u4bbhb9+/28bbW1nbzToMrhoiij2w/AfSRrpFn3Be7dqGP+LYt8Ver4XcXOugbuscVjold5zsQtCte1m5lfMTwW8s9jEkkQ9sJ0WfetETJ8eSDV3JdFx+hcX+VpzGJbOoVnVrUkdEBJzuUt4SpDE+RrSKIav4bVhs/Xh1+JLetOf63GREGjlu3KaBx30QzXX2nZY9IK7fNMwA3bcJAn7UxNs8jvdx9/GYcbfx1GGe4JVAZwlD/iDkK5wJH65AMZ54uYw1pqp6fjJpgY6CnZ+z159cxGyJcwCSRG3jZXeCImIGl4ulplmSTwBPiIZsiKf3ZJKqOKCNmsGDT76pps6zIJn7/EEcb92O3BotEpZUBSFQBU1c/VeaSqNCe+vdWj8q9wbb6JLKZ2+ztmezndaiZxJEB8z2pO73MzC2s/Lc/b/MGAZ7kpZ44nvKK46aa6yrwrz6zMxiijwS2IzzYaxQAD4P9Pe5Pur3HFwwNhRQaUsKM4wYfSokgd3by2RFD6tMjbBbkz794eAo6YWxv6EDS9mbZJekg+qhLZIWZQgV4FKC/vP1AfsJi/474EZCJcJddeawSWsRPjz5ivE3amfSWZ2xKUDILDDTlYnSFJndPZsSsfXZ23/V8nnk6cah9sI+uVE+a9nOULWK44mpKx6vaZyY4Ha8aPAMqABXoPgX6ygSn+xSBJUEFoAKdUAC6kk6IBk+BCkAFvlUAupJvFYG/oQJQgU4o8JO5kh8SfdSJZv/+Uxpv/uFiY21hqK0ddKK0W1/Qbst2+qMN9qaRNzFe6m3rbHi8swp8hytpLzcFyd8/fqR6U9AWSLJi1YP6MiHcx1JPW8fYJXRzBp99cvTnm1yNZ/8P7B7rYMDLe/x1LSN9z2Tu20rfnE8cMS5inuPg71CFtQ18jOHiNN6XXX8o9JGozcqUmzdOzNPtjhcdOtjKvSJ5Q9piI/+9eTwPonqFcV1hRDc9DIboI7TxIPqoK7owzLN3KPBd999WVYDoo55DH/EF+dBe7gow8/v7RT3aTHXPtnibjv/nNdhewyy7uWXWODtjMtg2YOExe2sGujcDmyqEzhf0x/++bJqfr5eLk8+SYy8Fvn4PiuLHW8Lq7Q3XlhhZBoUvnOTn6+nkMmFV4kfuxATJ2+tHCvr7wqaZ3i4OFEub8TtZb3zzA/yAaFrO+Sh/K32SvrX/6uQm9BOOWfVk/0JvK0OyvsFoG8+wBN4Xc74xDN3YHDHRfrSerr6J/cRVSezXW/iij+pvR1tZrshgyQtC3c1IC+voTO7Pb/L9GX52BnKCwU2pSg4b7RjzhEVYQYpPheh7/v0GwFoYn/YFjCRb2Fmamdt7z9xw4Y1AcAzj84EJ2k6xT0sfH4nZnPyx7FzoKLOo2yjchRNq0iOtrFdkcDNhFBydQvbb8wEwfQAXJvcfH/K0hEIElFpw/dCRm29L6xiM2rfHZpkZzrkAtp2zA/1ZrBM5LIWNj2nOGfxFu/q7oVPsMxT5wwr0Nzu8SE5R1wsb6RWPtwXoahotu8EGzWACflA4jYvBolTe3JHyU8Ek//g8lqms3HP2+Ok5RCZ/piG0/ORl9nr+e3ObaEMGwUc/gqJor7Z4kFi0IayADfKh552aYTlm7Z3K8lurnSxmnvrEqhdfZTCpQszGh+spmuSphz+g4J/8E9ONXWKfcpuDkRfvrzPteAlX2DaoQnxqAATX1zRbcLEI1K8+e6efYUD8e7b6jI97fEfo2M4/kl0LsqeXv/9QhoKV+AJ+MJsJBZqN2/y8msFk1H99cfuJABlZ0nw8MtXQYubBJ6WNTKTuc9aFGx9RYzDQR7S7/7E1D7/O7om1V5eY2q6519zqjM9Z59Kya5ql4VP7HyrqO0YlPNwUaWtPu5rki8/AfQX5mpr4UMPdVR3MpPGyxjO2/LMn/ljC7mg3YnJE0OqrzSg6Hm/NpFKpuH5SYkX3zp84ezMXkZDAU2ubd2ki+Wd3p6hMDjHn7qUmqDh7Gr27dPkDuGUxcpMuvjf2cFIGex8IAylTJllrKvQjECQ1x3mbIG9ff+rwvBXJT7/6doTfdGsVEaKsfvA0W0nOroo2MDY8teIbIST0ETbIhzjUd8Mag2tLJ0+NyDBet8F3CGtdA1MZvlQhluXioz3d1cBcmKjq6mX05WpaM6nx24phG/NtyqbfeFnrcY7KoCOKa3q4/foi9UZRUzsRVT1mTBiBik6UGz5MnoAB+MFsJjxAqjCrPr95X1TLFB8wyoKMbnPEDozcSycfqIcsn0xWEMHh+w0287BRY0vGF30kZugxRjI9MbMW5FiTceGG9Fh3dBMhJxAGm3k7jJAS2jYcbLN7yRGhrpVA9FGHWlU46COBIB+8gtUk9/7eOwnzNlpyMSDMmpdnNm86ej27uIGJx9WX10oFNrLXr/lQhVgVwovJynGcqLiMDAsrBC5ufnUVaAy/E9Dc+8vKsDMjAGAQrqwUkN4Gs9MSAIqp5cWPAfhhipSV45VUBrBzEVdWkSeglzfwmmqBG+Mqtx+N8F2djwwxn7hs7XzrAdjeBKWMEAcP4fE3WOgjET33sfIhibeq7c1uJt5SdD2oK9TLCUOv3hot3LpLmHo445Ym3pv4y8WXZK8/+TwJIYqK4BGGgOEBQUlDXbrwXU41kySHB+OMN+9x6ta/sDsJ8+ul3ef7jT/oAI40B7w8xctqzbZLL63oScXWiymsg4x/dyxc98Jr36mdBuAOU5ccZr6xxeMecLNCEA4LTFDL4OUV5XFPK6sQnBTogPSqimqEhRMQDPjpXvSRQJAP9fHW5afkJ0+kJ0Rut01YpA/GcoKVaalGk2BM2tciMJAEgz2AFSquk9WR416OzRA29okCjcFQGqn4+hU87gI9kVECQG5y5i1al8XsaQ4YgB8kj38zgRMlNFwXb3JdjGssebhjTsiqvTZXIg0w+zx+wMABjJf5AP/wzU42LPQRUdvDTSUwMT2vLilrsFuYFl/3ilHtHy4a20V3qqoQfdT96CNMkA+z7Nofi8+qhv83euVfSwedWrz2OkrfQGqra/qpjtSQB1cU7f2507fbWEVF+0HDg4T4O6UMRsXjA8ceDLK350JfCQrDh0vn3Ltf3LTNENMYAd2pJv3QoefVCP1rxv6zOVoONjyjgqZzMQA/BFWK08jsy5dQ2hSjKPXcrSqOF0S+3Em68aaUBtAwEpLiRLyEJIf6geaI5B2b7eg07yTgxnEC8Rc3f4OcfeuPPCuj45i0wgdJGXlozbDRR0QNNze1zEPRh7OGu7ujs/k2Q6eoQm3m2hsSCNmVQPQRuhbRvegjDJAPI+90xIq7ZmvXeQ0iEFV91q8xzly+7MwnhqjJrFVuWFAo/l0SL2M2Gvnb14RsPfv6sPBN8/SbSE/9rOassPvwhz34PIZLzCNALMIwhn++7FjCECudvNVjjfSdVrwyWRMXpCHgisQA/GAQqnCAKpe+bdZYE7Kegc2M1MGL1ge3GDgwG6sK8vIKq1pwlohqgdv2TJe5tMDJQNfAamLcnSr2qAgbfUQc7uqu+W/mSy33sexlFUE1Bcc6RxVqI9PecbjP7AyG6KMe6jDgYbDzjPLozFi75iVF4ZkCHgabr1Pam7IMe9ohvMJ6QU6dowr1AsPbNkHYo5K2S+xcCog+6pxu8KxepUAnqUK9qg5YxmAuQWGd0EPxEH3Uh9FHjPz0A2ee1nzbdfDSZJ/AbyN/7N+dpAr1CVH6zASnT6gJjYQK/LQK9JUJzk/bQLDiUIG+oQB0JX2jnaCVUIFergB0Jb28gaB5UIG+ocBP5kog+khY3RKij4SlpNDyYTzfMZFiZaQz0ntXDs+nCYRWCmZG3+FKIPqIv6oQfcRfFxjbYQWQLwcm6AafZH8isOXZzLKTwXqhZzkfQeYcIZLmJKRfjrZs+anIDhfZ+RO66WEwRB+hTQTRR53vqPDM3q7Ad4xKvqkaRB9B9BGrS/Rd9BEWh4n6KH5+gJOZPgl8jdclZH1yE54J7OPhx2diFF6PnWpnQNKz8Fy8YbELiT18oCbOJnlsZ/MZkMIjk0iTDnO+tM5PsYb01S4U+/Hbn9XdixtnR6FQnCOTq3u3N+k8fYVR/PjS5aelzWwXiD5iiQnRRwZ+MTfy6xi0gmurxowOPv4ZG9uEsqZ6D/oIy5jquwnxV14U1dKRuk+Xw+1IEw9+4lSJH5+JUXhquqHVgvMf6xHqu4SZphpav52pBP2i9sIsHfdt2Rz81OFAncBDKIkJm1wFUEyf948nAQw3Lz+pPvfGmYwPLYhg3Ou46lyojtfOd03wrs5f3x098ztGJRB9NExODE+U1fVz163Mfs2HZt3GTQSij1gC9R70EZYx/U0mhDiNUpYk4vsNcfSlyOe8ym2xrPktn6kmK/WurFuQm5o4XkLDd5ozSnUSEDoBiwK5if9i42M1rIdWRfjXRqhrJRB9xF9kjFiIPmIJ03vQR1jG0D4kb/tv/JV/C+sAj6Cx6ivNkcOKYtn/DZ8JqSwrZyoYK7IdCEFBSQFfgNEB0OjOwKIEZNeDh4TqSnAQfYQ2JUQf7T4/f4QAVEDr/t570Efolc3LYUI+Hlkank7++9CfVgPF8fS7qymzWy9atOYzEWQU5PFlJaVsfhJSVsx9/kIQIeIbG9lIA2Y9tY6tgmBYFJo1mGj0oINof9GCB1/tz4eTEqKPIPrIpfJ47MFHxSiGiFr4PDXxDmdxEbMz9Rr0EWohrzFMak0tQXnESGVxQPUrTD15FSX0CwjSZo4mFUkHkz7RmHW5Zw6lcme+omrqqoVPn6A/695cSnnN4aQIgkURpBXlCR9fveG4HQGF9oJDwh2V4Njoo/078x03OShyWHr0otu7//zjXWFlg6jcMP0xkXvDxyo0Y/aY1JK8vPySumbPK2Hy+7Zlq6LCbPdViQ4xnbx5g98g1OExK9L2nKB5b3cbwEvelbLwsKOGnMSP32/BwUezAD/hMd5uu1TkJZSNtPWkc5rVxsuPXbTk6oL5FiSaqG7Y2WOh6sTGrPXeEZermPXlVZXEUMoFUeLwqbsPhI7QDI5bmR851/2ClLT0UI2RHHxof8ewFRnLwt08FFRkpFTNRpFEnzXnzkIfXYmeYn5UVFzONe5ilKVodXK497qsBoRaVkd9Mt52P1GEHJaw1W+gZsimmOKojR5Gi2jiAw3Hxf4pkPuD0V3YtKG/Niz32JJfg5NQUjfymK/rhuOgj9afBegjPA6gj+75APTRyZ1+gpThXwQXfRRaKqLuyIs+mgfQR8sIQ6ccuBRhKCJrtzI+gscY/vmyY7noo9fVktqe7UEfIev/CrZdUtogKqOqbTV1uSvgzPJvJjb6aPnqBcX1ODFZTQo/9JFIS/QRmK1wOEwtjdGaHBX87I/xY4+rKEnIa5P1VQUPuAgDfdbEvgtf62EULanu6GWpSWS//kHUnhzhP3elr8vp4UN/NdHSEvnAqj9G87G16W8XOvfCsoXWpkRxCYsVF+LcZHg7vyBtu/VYR9dpeyo9/d1OH4PAQ9yl854y4+crF3y8ws5o6TXeb3EIRQr0ayH2Gx6xPnjS46ELjKG/2e6hw36C0+XVo7/YNdXZwcbMZPI+zgdAurzIlgUIe1TSVW4Qoo+6SlmY74+iAHHUzIMpM3usNn3FlUD0EUQf9dhFAgtujwIQfdQelWAaqABUoA0FhPwEp43S4GGoAFTgB1UAupIftGFhtaAC3asAdCXdqzcsDSrwgyoAXckP2rCwWlCB7lUAPyi8xdtV3Vs2LA0qABX4YRSAT3B+mKaEFYEK9KQC/wfHxlUQZBGvHQAAAABJRU5ErkJggg==;" vertex="1" parent="1">
          <mxGeometry x="425" y="230" width="277.27" height="200" as="geometry" />
        </mxCell>
        <mxCell id="Yxe4IngEFo527paeNo9J-10" style="edgeStyle=orthogonalEdgeStyle;rounded=0;orthogonalLoop=1;jettySize=auto;html=1;exitX=0.5;exitY=1;exitDx=0;exitDy=0;entryX=0.415;entryY=-0.004;entryDx=0;entryDy=0;entryPerimeter=0;" edge="1" parent="1" source="Yxe4IngEFo527paeNo9J-2" target="Yxe4IngEFo527paeNo9J-8">
          <mxGeometry relative="1" as="geometry" />
        </mxCell>
        <mxCell id="Yxe4IngEFo527paeNo9J-11" value="" style="shape=image;verticalLabelPosition=bottom;labelBackgroundColor=default;verticalAlign=top;aspect=fixed;imageAspect=0;image=data:image/png,iVBORw0KGgoAAAANSUhEUgAAAoAAAABXCAIAAAAbC2PKAAAAA3NCSVQICAjb4U/gAAAgAElEQVR4Xu2dBXwUx/fAV05yuSQXu4u7u+BOghNc+8MppdCWlkIFChTaQgWKtVTwYqE4tLg7wQkkSIQYsZMk5767/927i99dQguF8J/55AN3u7Mzb77vzXsju7dwQUEBl8uFQAIEAAFAABAABACB/5AA8h/WBaoCBAABQAAQAAQAARMBEICBKQACgAAgAAgAAq+AAAjArwA6qBIQAAQAAUAAEAABGNgAIAAIAAKAACDwCgiAAPwKoIMqAQFAABAABAABEICBDQACgAAgAAgAAq+AAO0V1Amq/K8J4A/Pb/pB22tzH3/6i6lae/3UjvX5WqVS6d5h0sr2zi9iHPfChbTeVOWpfRtO+09c1toRtp7R/NkXS0CXl35qdVpeuQ5ySxixuosHaqq0gZCEKOPwF9fK1Bq53LP3HyNiHM3LBo4CAoBAyyBgNQATwj+3H9X1mTBGc27adZdlIxNcLPoqouDatll5Eb+MbetF5iFEf27bcTty4o9tnF6Ea34dUWrLLs3ceaM8aMDOIREsg4CY4MqH29MKcQiGEIatY2Rklw+7hbohEC5K+3jrlad4dStQr6lT/jeEYxElmQ+vuD47tWzwtKFJzBfSdtUzkdI3xNWqsp+rIkb73m+3x4s3bDqsdue8IBW/cCGttoiAfCOTxnhZVYO1Al4kAbwq/fcr8uQx7w1xrq+ihkLCrjGDNsTorh9dt82BZ29NPHAOEAAEWgABaz6ZUJVnKd36u8Dld/hM9yirMwXN03KxvZu7myGsEBp+jtgmyM3hBbnm148jITt39b6Kw6HJZZUERI05IEjOL+fbt1r6dvcIWF9Zcv27/adSfQNnB9EQl3YrPm4je/T3u1fs5k1JjkYROmot+pJFaUSCMo5bAOMFNRyvyK9kB3Btm6j1OWsj5IJcpWsSt3q29pyXN8z+coRsWEvNd9g2PDLW4tnmnXhRBMRF+fmuoXOcGnVGs0LildkCyD/U+QVxb15TQS5AABB4CQQa9fk6degFpQUuHsGo5n6ZNCDK1VqHx4U5QiIw1OSMMWF5HsHtaPhGKIsPXbh0rKBCooOYDl4jUoYM5lFxWV3xePv56xdKxBqGa8eOfd6P49kYqiakd7/4Izsy2fvZ/ewChUrJil80rlOo+UhOCO/unv7QaZi7MqNU8EzN6dtvyDhfGxjC7p1a/zM6YEMPH7J5qqy/J6W5/DChk8fTI5POyyLZkocybu8oZsbDfKln8g8Do3jwcwujenZjb6nb0J4uhy9LK0wBGMsvF6LuMWTARSEG19Pbl35PrTdMe2Ey4kJlQiHBCwlm0KxH1apHR7+4VqpQSNRI6ZKNDyGY2bH32Ld9KZJKQcbWCzevlMu1NMfEtr0+au3JNhAzn7CqK5fPbM8srUScOiZ6lWpc+rkYIOKyuzfOb71fWKKBOG6Rk/sldbYvXb/pJC1l8tueNZSxh+f/WKZJ/r0X+sf6YxUR0SxhYa5Qivp2md8/xqs6l1ZQVmTvFmic/puE0JdmXd2Q9uihREuz8+7fo+9YfzYZ9bX8e79cvJ8hlMl0kJNH1OS+3Tsap82WhDTbJEJ248rZPVmlJQqtnuHUpm3vD1t52JrNWS1MSdaVDWlPsqQaDGH5RCYvTA7mkAamerLqz8sP1UoBHPXtuz1jTWZtyZYgnTh7x5nLp0oUTG5Uf27xflX7LYPCjI02R8CiLZmTlCi9d+jr2yK5UqJHq+ZuvA3T/N8Z26sdw5KQVBmEmp8jdW7FrddzLfUmc5WCY4AAIPC6EDAfgPGq2/NTr+XotFroyfQ1F7RaDC78fXxg798Ghptd+CKk/Kcqx3ge0zgBFpSXSxz9g6jlU03aub+P03oseTfMDdUJy8qk9pT/xqoe/LDnBqNd/zVD3GnCW9/tP37AY/wYQ2DWifgFmEjLj5s16m0fBi6VKOjmoy9VTAFfpNc4BrQbNNYBTz+zeUl64UjfMBtC+lSg9Y83jhjwZ3wRwo30RPBivhDnxL0zlHt4y74HyNjvhznN2fesEI9ykT6nMETViasPiYghPd3LL6hLK3QQRLaUrJSv8Q93p4YRmDz9+o0bSOAHPtXRlpDl8lXuPm7WQqbBJJwiU9ZGKo7v3XgpeOx3CfY1c1ZCmrF8Xxqt45B1I7lQyaUv9p3+23/C/1wtzWm1GRcP/Foe9sXkYdFI6abde7Ic2r9PyaJ9eHn/imcBH495rzVbfvrwzl8ueSekONrQCE3NCjmVq+BkFq3HUH8b6e08lZ7JCvlkZBdb2b15m+5cEEWNNaiJjOTFZQKCG+xTRzvS3DMLzsr6Dpow35tefPPAZyevx73TIwYl5Co0ut2gd32c2XrB/gO71t4MbtvLlwZZEtJQfONEqDTsiGlvpYTYIRU5p784eulc6KgBtYQaXoCLbi87w+80fOKX7ixCJcqooNkZssCs8Nlvh5XcSJ35zM2vdlBp3paY2sJN+0/nRwz6fZgXnn9m7qEKj06u1dsCZghYMeyG8hlk8UwYui6+al/qtofxExdGk2NHU7IgJHUWE5QX2LiNcqhV/XNWak4QcAwQAAReBQHzwQ1xav39B5MmeDqmjPzwz1GJnu6dfvroo+0Woi8ptkZQXkhzCzXdi6PLK6tgurlTUyVCW6nQQoReqcMgmM719A2i5g7KK5cvFwX3mpXo5UxDHdyjOruKc4RkHCMTUcYXaFwSZiRFGIIX4sCxrzfFqsuIEOcK8IR2XTo4kH4UJZd1mQwG5VF1gtwqTpBpNKDOF8i83bgMSJPPl4WGh3kgWoWe1yWSy9BqVHYOXOS5hZE9TTsg4A1u7WvLsnWAZAI5QQmlE+RU6HOupY777ddRv2xeU+w6eUTvzjUTNL0wR0QLdG/esiEmzBXZBnKpuWN10j+4mZbj2/3DeJ4dDNt5BEQwJSXiujGzLhdyMPBwVwbSr0fHWDaKsDzbeNracnnk/JY8nnofGdi3SxsHGoxyEv1cdOKqKohmQ8cxAtILby3aeuKyihDnPLjnEt+Ph2iF/GKHmPGt3alxA4KgMMOWUSOU+ilf6uVuWregqscFh69me3XqO9KbTYMYPv4+PFVVmYY8ATv7x/b2c7ZDIJjhGu9FDsEoYpaErNeSul8QXtfEsFA7Ogyhrn5+fjBh4G4x4Uq5mCD0Gq2WgGgs1wRvxzpLOLoCQRXXjWcMyVQR5m2JKM+4dpbZ5sMOPo4I4uwfGEZn+rs5VveZRgSsGbZFOSGd8CllrrVkq7M2EtIgaDmfr+a6+dd2XCsGbLlScAYQAAReAwLmZ8BUR9cUP6jy6MGDBfdL9J5dPC3Ntag2kLNMgZ6bEGj0cLgoS4AHtOJRN9zC9j2Se/GvpS/ZeFbv6J/SredIX1tYU3glX6Ngnvm4yFgoodWwElnGi7X5fIlPaJh/HWdpkZJW8FTiFOVl2Nok5AVCtU8odZ8RVsnPh127GW//wkRPRTaBbe1hvCS30iGUnAyJBYV0994cqCpfqHJp5aEtTH0uYXDBkatZaPiQXk4wjNlyELlQjkMuKFZRngf5vzO+XycmwmTasOrv8mKV5XmYS19ec1oF4RJ+ns51oGudsREuuF2gjuzib1p+wJQSna2b5S1d+bP8LHbAeK6xBL1EqfP2IocgkLQwL9shaKppnERIlSrY1s4BppMzYAxT3bqdK4agUrm48oEgoU1/Lozn8oWIR4RRrZiIX8TgjqiZcWKCbCEzqG3tRAyXFNyucusRaGdSqkopo7OdyFpx+f17aQcfPytW6nECV6lUAd1cSBCWhLSkbqXw8b7r92/yZUqcjKtqMTNyUN0hSqPLaD7tZ7W9su986iE5MySiw3vdIr1rjB2veiokt1GdavVh3paU9/MEHkG9jMZPqBVVhEu7Gr00IgBZM+xG8lUfwKr4BTDXZK51czUWkjqrzSuvcnPj1a69/6NKLUoDTgACgMB/SMBcAMZLtm7/65RUK9PBjzb+plOr9fS/JhdFfT6+e4z5CKIvqZByuFzjHaW4pPihzKm1t8k7srhRUwZHTcHkt87t/u7yw85j2niolRLIa8K4USkmX12nuTgZL2lBcc26d1pPLlbTuP2MtWKi3ArbIB5VqVIorHD0IZc4yYRXFj/SuAxyRcj7ZfK1rkOcEWV2ucA11B/BHvErfDx4dHXOcwlT9eTaX0JMWXFwzEOqfAyDWsl0BIRK+PwKjlckh10zP6qrRLmgnG/rFtS4veY0rRHySx149e7AIhSVCgbHNEaBZAW5D20CBpiWghsXQYhlcpzt52yMhNriO6X0AGo1m5AoFAQ5azcexytvPpWGxfrakwGYTmgrMk5isWMCHt4rynikiZgRQK6zKvP4Mh9/KnKTAxwBX6jkxtQMjHCpIE/r2rfOHVi4Qi6BWY4sY+m6x7mFmG+XCJr+8cU935eEzB08Ps6eDuvy12w+axg7WBKycXMM1csyl+9Js+k25IcUrh1ClN/Z9VGBe51ZoLmrYLv4tn3j2xJK4d3vd53bGxA2yzRCJAeXwjyZU7RhiGhM5m0JF4kUhL2tqUni/KfZNtzR1VG/MQHCimGbE9B4TC7gi1wCAhp1xMZCUvnxihwhEhBVu5Tyzyq1LA44AwgAAv8dAXNL0IjXxInvfh5hF9V98o63k+PZoZ+8+8H2SZaiLykrzKSjqkpBsQbTqgSnr6SXeMYmURMForzw8d0KFbm4jGmVfLnOicclowLM5vrbCK9mlkvJNVRCKyzLuVKsMC4nks4yT+EcVHfyZxEFOZUViF3cAwxjAlzMz8e4wdScj9Do9QSO6ckSdaLjl9OfkTcK2ZDrfPwSJ3d/Gl5QLuK5u9niVTkCRhDPDnkuYfQlB9Ly7BNG7Z49+xD5N2vKO95IhVRGQNQdWDTDMm+DREqi1Wtzy4SwK9cTx3S49XVT8mqiSiLT0RnG7XRTaTDHk6N+UlCuIMiBRPovF56Fd2oT3chlV1cNc+ztUKnoGbWor354/epljWsQtSEOuzg50iuK7kkxQi+9ffnkYSJhXBQZjsklaF363cKg1mEBdtDN21n2sXEhZHZyTCOyCeAZ57z6fH4l182t5g4AQq2SEzqFGqtpL+rg5A4J7hUqMEJb/OTc71l2IzqE2BGq3DKpi29YNBl99dLrFy+eV/NCKP1aErIhQON3rLIsB+O1C6air5x/d+2NMq47z8qGOqEpT8sqE5JDI0gvl0klsGtQnWeVDbN5XlDt7N2CLSFssvUF+XkCjFBVZKy7mq9z5flVq7gxASuGbb5V1FG8kF9hx+M1fsCvkZCGMgi1TA2pNbVb9v+oUsvigDOAACDwHxKw4MWx0rQCu/Zt7JUFObkeoTObeBqV3qZjz64nLn/+63kd3SEkuNWiQfEe1ERILyrN3Jh+ulxDMJic8PCuizr5U/co0XzHpbT59dyhKde1MI3h7OLTr5u/cd6kF/KLbHljrC4tVsPB8vkVTm5cB8N3lZBf7ugeSE3WYJeQxB4Zp+dtzvXjeoXQGDZcNy+EKOWL6LxoLiS7KdAHtHOEtVlPZa5dyID9HMIQ/MxrJzUhH3XwNW1Lw7YubLhCKscJOFeg844wTharBST/J8QHd23eVGKMUifGrToV3GXSqvbG25HrZKv3EeYFRLbKuDbrt9tMutfEsYN6kHEG4Q3u2SHv1KGJ9zAbO/dOHYZPogKnxeQQ1mVS3tE1W7ZyHey92QjNnudvkJgd0uW9ouN/bF2zFmZ5+8V+MrxdBDUJRGxokMY1eoA7zVZiI9XbvhNJrSoQMn6exqW3cTCEVz4VwQFhtRMvlBc1NCh/x9aft8OM9n2nfh7GgB2i3+lWuvrkxlE61JEbNGjIYHLhAYLsOrdLTDt76KNnzu629gE2dMTFLdAw87QkpNlW0bzixwQe27pj+ylnOydnJzrKCHSrs4Dc6BoyYN64de3nEwodTHdy9e8zaOAA8ik6Qn7m8K7UMnL8oRJpkJUb8+k0/6nj+nRgWrIldrcuXe8cuTD9lyvefpERHLoHrzbqNyZgxZYaCVh9gJDlCdV+MXUeMbAopOES1LtvG4+V59YPP404xwxd18OXZtmALVYKTgACgMDrQQAuKCjgcrmvhzBACkDgdSWgL/x14zG879QP/S2MWV9XwYFcgAAg8NoSaLRm+tpKCgQDBP5jAoT4fm65mFy/IFSPb1y9wortRz1YDhIgAAgAAi+GAHAoL4YjKOXNI0A+Q3fj6slvj+rpdKazR8TMIe2Dzd+E+OY1HbQIEAAE/gsCYAn6v6AM6gAEAAFAABAABBoQAEvQwCQAAUAAEAAEAIFXQAAE4FcAHVQJCAACgAAgAAiAAAxsABAABAABQAAQeAUEQAB+BdBBlYAAIAAIAAKAwH8RgAnJoffajt9WbPHlAS1JDXjZjolt3tkjavIXrVpSo168rHrZ8pRbi67WUsILSsa0e3xE8eKrslZiIzGsZX7Nz+Gqne/f6d37Ztv420vvNt/88Ivzbg76SV77k2X/opmNlSg59KjdhNKSN6Jrm8D8I5tpTOZfYH7DL30Dbeafa8xaANZd+6p736X39P+8dOOVMCtu9GcT2jlZ+e2mf1vFy7pedWxm29Eb81+I92qmjDrxoqT037LxrF/Tk78SG98RVe9SQnds1s2hP8nNnGpmFVazFadmdp5YWvSiXSrs4jjpU/foJn5TraFk/1YYhNnjPb+UwNfJ8pTib/rc/uoqRr5Ha0arq3GDCx8ZrEuXXtA/9mqrj0WqhgyqvyOsMb+1OnU0tB/5m16Nkur4k3ZvFeeb0RocPNBvWnemtY7eqLTmH2DFuX86gWNOIstlvGQDtlxx8868TJuxrCarstXYjOVcumu53WKvRkcb/641OeQixNLNs9OT2qS1TU7/dKtM2nhE11BNRNrXt/otk/7rcAD9E5ux3PDX4Ix5MiXbM9p/UqHRiGa3z9hRYknM/+Q5YEZA95EBliQAx5+PAJZbvuW23YQv7GpfJfB8BVjNrZZsT1V1+4xX9zW/Vi9o7knYnt17pJVfbzZXzr8XBmEkDOCZK/qVHSs7UnLKxX1bBxQiFwMQph9RdTzTNzKOSD9eRfN/GWES9urg5vXSmssIcH7erv1yDfjft/R1thmrrUM8PDYc8E80uHSEhlh7Zp3Qn/0ha7PEc91ZT++iklnTniz1TViSRKs7snt5avoHNmO13S36pPkAjOVvnzEjNV9RWVmFzB5wngkhniNWbngnnNKp7tKC5O/oH76NHf3zrlCugtvNTV3cy6Hk5LLFG85mFol1dMfgLuM/+2J8AvWDwtiTje/O3vdMJhL6f3R46wRv4zgce/TzsEkZHSc751zJKSpRB4377scp8ZZfFYQVbBo3/ITnIFd+VpVcovcbOu+bKYmGnysW3964cPHW62WIR/uh8aLUnN4Hd0yyGDq0F75IWlzRvZUuv1guldu2n754Tn9fMoqp0rcuWLH3Tg5fQbA9E1JmzPu4F3lYn/7LxHlHRIoKpfT21JR9NIgW/s66lSOMrkxffPLbCVv+zhDbx771zarZnUwvHjJjCfpKnVJVf3QJI7YetHq2buY6S4cI/aUt5fL+of1qwgo5kepRFjjPtXyf4FElpma6frfHP+bMk26b2am7fUIQ8jW9ZVMHVPQ8HP0/N4gcgHdbh45vq7/zQFUkRLt+Fr6wbz2nLzhecszOfXNXSrzK/Q/77IDa6BUPaE6j22kOHVI4DAzdPM+JXMnAKyVblxb+eVlJvkw4vJfPl3PdQqkfm8bzj+Qv/EmUJUfD+rly9ZDp1Q06ycqxuaer9IJKh68vRQyojsJ4iWjZ4uLzD9VVWtgp2GncZ4Hj4uthqSsMRC4MDn6UEevCLFJK5Ho0ynPhl+7hxt/kxtVbxqendQuKySw9nadX6BijV0VPjcTPLHqw4qZezCd6r2nzdSeDb9FLlw7MzvBjlD3QBg3jOl0tvyixm7EuclwITC6L9dyE9A/U5QoxqYrec1bIh10ZBmslMlbem17q/gWvausVjVRBhE2PWj1M/+vwzKIZbX/sSWYhbi658wURcuJLjswyMZM+NbLU7cqOH4UFGDsCTOval3XjhEwbhh+7xe7bSbGljMpIqcmc+kyF1P9Pf79o0jyhSKFTySTvpvBpEBw+JWrFCEqtpfufTNuokFdq7MfEHpxpZ3xtydk5t1by7W0KZOpW7j3Uor13oM7zo5cOJPPj+ccKf1grTC/Dbbw4oz8Pmt7RQADTXFidu+yArJLJ6jbAVlNtzNiT4mmf8p9JdUJ/38NbPKm3f1MJu781d8U+aQ4fI9jMhBTfL2a6UJ2sJtU3YLys7O3BwqBJtiXXFUXFOt6A4JWzHMneZJ6Ai0X1QTrNxXX5aw6IC+UIL447c6F/bx+Dxi3YhgUhMTM2U0f2hh8tkKm6WvTVL8J7+To1jPq1c581z7sjD7aspqaI1bUZXJP69r3TPeM3j7OheOPqbZPSL/RN2DjGtLJEJ1+Gat6l15ddXnXkApT8owf1k/LRnpOSS+ccFiuSXOu8H7uunyHydzz+MFWlrNJVwlkDzyMQyhy+POqdcIqw7lJOj++RGZOJY7ukQgUOtw3Y8Y2LQ6n5rm3eZjD5muGZGR29nHOqcoo06iCP75Z5x9WK0pA6udo/boTIcxCdn6WTSwi/oYFfv+1AhgMr/sSskI4q+e5vnq69oNK72A/rBO26xt74l38MRAnTuGuTJmzO6Vkj01Bu899N3abBSTRg/O9HTxz+rr+zx9CVR06cOHFsszH6GvPhglOHivos33vk2OmjG9+JsSF/5l4He/Sbu+nYlZtpx1cl83//9Ocb1KvYITT8nU3Hju/9pE2j6ZrmYYHLjN9TDxxZP1C0/ufDAjOLZ3WFwnJLeB9t3Lnr4Pb32bvnrLhK7SXKLi7/fJt25Obz18+sHVhxI7PpxRFckK1NXrZj5979K7o8+XbBzkJq9Q/Ts2MnL9977vrNi6kzuOfnL9xLbWnR4mekHjtxaE5H29DJG46SCI6sHlHtZPQPLua1//5w2oX1g1S7VuzKsbxCjT95P/On0Ix6fzGFWUrzyjAcRW0Hf+bT3Q12T/L5dJBtg2Es/kyw5SJrzDgO9VKLmoQpj5wgxv6acORY60Or3Yzvh7JUA5YvU/QK+WNX4v7PbS6uKLlddyFbJ/9zm7z1RPfaH3yiOXy8O2oMTXQS8T18wNfxGP8GKTquSp39ZDfm9vOJdjdORfQVFs3+RUpqG88t/WKxJPTLhGtX4z9zk10rq3bVdM7sPa2ObvAOa+AadLBn38ANR9reSGu1Ikn7+6eFRpsxSd5YGALLrmAv2Bq7+0DUCEnRF+vrLsLjdw9W8j6MPnSk1ak9wX2oV4GgPb9OOH44fLjhtSC1Ccfdh0YeWGT/cI+i7brWq7qrD55SGvWHFSmZYyJ27Izf9SX7woK8Y6Lai1RXBHfignb8nXjyROwnHen1S6xP2iyx6iwVp0v+prtN6l4zzoDtO7mG3BZdviC8H+3awbLTqV9HvW+0ON8dR1sdnOPICvFaf7TV8eOJqwzRl0yew8MPH0/4qkdDl4yFeG3b7et+gS8YFnd8Ifv6wUohDsmv5k//VhYxJ+7SjbZ7ZjNPz809aBgNlB96Ou8E7b1dba8dCUnMq6oxdjTce+ORVntmOzTo2jq2/aQf485eb39xh6/r+ZxFe2vf3ESWZsaA9YonqMfqbXFHtnvR9xbsymm8GFqnvebVh2f8/njuWfrUzW1upCUsjpctnlOSW9spG9sGZEFICzZTj3ftF0tkdDi904eRf11sf/1s9Cii/PMfKiQEZEVNFoQxVVTPZhBmr/72WScqjPfT4EUVJ3Ps+/c0qZt8e+b8gbeS+9ybsqDkptWbVLBiVYHOJsRff31LweY0vX8IS5evNL0zxlBtfTXBAeMijxxP/LYf3WNo2OHjrY4fiTZGX6OIhED0V5Hrj3sSj55M3DDFjnp7p4WubclmyAofFtA/+C12/+HIAaLin49omwoHyhKu34bUuAPbfdl7sleSGzpkslCpBSHx+2uzVz9zWnWy3YXt3tg9qdrE28J/5p2eNTJOHbzmjWLT6Xaj5nm1d7JQLGQ+AFvKXX2c1nrctE5cql/bePi7k8EADeg9cUhrXw4DRh2ihvaPkmZnk33aWqIn9O3nQ/ZdRkB8NPtZflN7jmhEn5QwsiLYuUtKJ92ls/d1kO7BuUvarv8bEcpGGB7J4wcGNd0WmNNpYBL1zkJmUP++wY/PXaHivl3rEROTw7m2KGzjlTS4Cyf/SYHliGpoEhoycFySlw3Kie3ZyaMkzxDGzSfYb07gW/uC6/396eFbL3w2uBJhJPZ3Id9HxIl06Z9onITV5MBubS8rSfIc4tPgGlr3iZ5xHOqgnR+Lap/lhPg4pyRSAYAT5+AnURVIarNWnSs5iPEm9aoNMKgXy8fWxtcD9gxgsbg2XnSdSAJh2cIDmeyJn7mFO8CIHXvkOCfluYpHeqj4SmVusNuEzgwaQosd59G59p3x5qVB/F0mDHHw5SAwQosa6holVebUiXmNhSHX1RJTuNSvMaPM3ikOZRcq6zhZ2Kuf1/AQlGwXwmH5WjR38lqGny9q523Ddbbxc0a9fOlioc5oqYi384DWFBl2nGuSs/jMrVq1wuFuU3vZULMMOt3Pi6rFUjJLzJRZr9i9RRo7wd3wCipTgtmOfSIly1bKEvpxTO/YslT0izvu7m/DcmZ5c5iB/qi9t41TlbaCwK7sE2L9/N7vxGQiiFtnr+EB0tNpOoLQ3zgnderj2c8HQWxth01w5VlpPCUh2nqEZ3I4wxaBmF7OgzvT8rNUdbqHOQNG2b36s8kegbg7xLmr84usBmCz6tNJDx7SdJzu38cfRVB64kSPxLyKC7XlNLYN60I2D7RlMrwuHqM6spzIdUNb1qBBHDxXYfX+U6vCNLIZbg9uQp7oNNU6Iv+UqKAVN9nwKh3UjztvddMz4OcAACAASURBVMRv62M2fO8dVlD84czSXMsOmFBhKghhMdTX9vMP39QwWAh5RFkL3pyarFChc8ZOczSEA8TDn0l2E+td21xJSEJfV0M4sI2PRovzVZZlN1yNsvukUDYDOzmldCQun5OR84gmKm0gJKa8cF6bMJJ0mzDqzBk/zL7hKLW+lJacnrm2mI7ZBjsPameDIDbtBzkHW3SG1qu1UDzi5Ole31sQVfd2rv7t4M0CsR6CCWWlzqc99UJeKwlh2ZqWTVAEwbCm3pOLOHCML6YlHSyHLafq0VZVKR38nY3eDHFyqX1XnsVqYTuOvXFOidhz7AlxhZiAPDSFp9f+tPVMJl9NSqyTCjXJ1GtkrSXY3sHeGOXodBpOCm8xM8z0tHExvjGxJg+C/MOtPpwv+uMEbdRmp4YzJZTh4d6EX6ypHWah5IoFlciVJIjAarwjrty3RRI2Pi6GeqdjdUJhFIJpKIRSdgKjCKTHIFyoFenlG6fcTTXmwnEMdyLfVEyr1MMuDNO7nJkMniNs/ZZnokq286eiQzdVBpvBK3XM9hR4g3BmhYFhBzJaGyplOtAYYp2YBG9aIoDdvZtLFSUvgWGUBlOhHIVxzKRtxIFmescjTOPYQ+JKPQ6RLTZU585s1juqyazmiBnKgKQXS/apuMv6MeqpCkbaDXYNEMKDWiHwXWPGl/4v2WpKUlJUEgX5Lw5huI4vxMV3coddN0mnU6K+Sj1BwFViyMWNbuSAchkuiGFpy2LCC08/+3lbRSaf6tE6qVaTVNu1zRswjNpWOxMEgWoN0kIVZtSn0QkkePqK+wPWGK8hlDa0YHnN9Y1tw5qQZqvVns3u/LGQDFHk65dXXw7tQfYRQm+JjPyJ4Ndfyi7n6LQkArVeyXa36lCsCdPYZmBn55S2BVtPqia/Q5w8qWk7xdl4cyvixelj3B/zsflkgSptrOhikWew6TWvDdtEOgEWjKv0DrMPt5sNQcXbcMMRUzbzampYRu132JHZKBxY7toWymGRQzZDQhFYr4ea8MAI1UONyYGDygrIKyCaFX9C9vgGQuL6SglCxgxjo51c6dYjoQWnZ6Exz3HYarUwDBOEORQIXM+JQOqrq2ZtqJq+fs/IUHuUEO6e2u9gUwifQ0YqKy7ii3CIegWsTiQQsx05NIjh6MSSVlaSYx/yKF4lqrA8Ea2uDBcLRFpSVeS6c4VABHHacWC8aNf8+ZdiVm38vqMbE9bf+rbvzNquSzpqsqeZRdA8+fHsmY8OHq4foG0chxUFRT3n/UgUgsydpY/b+nwfXJ+9QRBTXKoWCkFhWE+YIosKb7AJbVZ0+ZXS3VUuSwY0HcYQV4arndP7e8J61R/WPXOmQRl6GQ6xya6E6cUKotG+Q92a8aurnmwU+6zf7RZiDxPC8nf782tOmxeGwEUCclhHBTC5UKt2YHPqzPUbWKTZNpo9WGPfuEgrwiB/skxcJ6yAOI60muIbFU6FLr1piEmoVDhhbU3DUC2uOvBHlf/YuMRG94EzE33W/kbmILKq5bOuPhSpM2yqvsRgqP+4zxEQQue6ogGdI3ZPr3aExpIJvbMTJJOYTAmX6mXm/EENWLyofMGXVTEro7/rwGDCxO3v7syU1Z60YsA1mYwfrBOom5kShxztcej9v02Y18ZM1yDPN1CfVSEbCGL6yugRejMjtN45mGaeDCbf+Hn+4wGR21fbO9Eg9emspJW1yBqryZowZm2GvG8ghbN0rehxB+KUyHGG4XaNBgmmIWTXwy3PC1Bvlj+N/7QAh6hdNTw/V00P8PA2jWUt+xlyq9Gs9pEGC6nWunZDWf/Zd1zLJ9fYqaEHQfoEtiONBjVVaQMhEZoTB8+uJA2bAlgl0ukhY88037UtOT2T+JbINN26Oi6sUWbEyZkjzs0WNB3Y9HK5xs43zJecXhKKR/sP3296O7ZRbdYP6LP/3nauXIsrs/fsvMzskhxHJ3dVkrvQL/25P0eJ68rP7TiaZ9ngasqWX07d+VCG64VXt/+VF9q9sxu59iJXILzgUC4ThjD+uQMX6jUXdXJh87NypM0o2qz8sO+ngaN2BdX72+5udQnabDmkoVVW/HEIGjrJpTlPc9F8WJ7lsgdCsiw852RFVpMaxNV/ba7weMuzbTOWQdFQ7uBAyfrVFQVyguzl4gLJkfMKcljj1dUlNLfiBNmrIUJwVpgmtdAS02FCocDtfG19yYUNAnt8QFhrMxaFIe7uLb1VSeASWepeqVs355AGO+TWK2zqLM6v2P6XSk3gxSdKT0o5SW0sl44w/X3h7HQF+cgQXlF1/HrT5q68Ufon32XSIMO9M00la+pDbfy99Q9uNbyzD3Wks/mKnDobCk1V0uA82nmYi3Rf4Y50LalKTKl9dE50ixwRwbT2PRxE50WZ5N4/ob/1d6X1R34JlV4BM4JDyOgLYYLK/Re0Nab3Eg2Y7jB4IHrq12dppeRsm9BUKK8cERda7rJWhHwOaJbI4JhMgXiGsBzJYb5G9fchSd3nyhqryYowlmzGviO3S5Vo1U8iaRfXjqbVMCLnLP/SI3WFHBMXireuKssLdO7iWx2aCf3JL+8OmFpS6wfsnAZ0h85uKX8iJ+SPy7aeg5IGOBqnBFbU5ORME+cqmxEOLHft5+BbnVUnXj7i7uhVknp9TK/8e1tluRZS5pT/eRnukmxPJwOPJX9itlLUtns3BulPHkgIrEqy/YDMVL6Frm3J6RnLbjaZxqJYmwGjIcPfG5D246jua+lM79E/bZ0eZckl2SV9MOfal/OHjXDm2dt6tg2PpGUaqpKdXjB62Q0drqxUKu9P6LMdpcW8v2X5UNfGcjR1hB7X3vnQ1B7zy3H39hOXftKVsjv7bp8uHfvl4kndfkI92w9rF0PLbqoUxKtj5LNvh3bKkdmGpiz8bhx1v1Lo/+aMn//DhCH7eC4sTnhMrEfdRtITx3zQfu4PA7p9z7CJnPbHL295N1VF/fOwQ2tOgxXo5yugOjeRu6f0VqTn3KjG410zBaJh7rOGSZaMvXvI1yaoNTuMZvHhUuPF6rulqUXOnwxjNSc8QChrwsowYnnhtL45VTrYzpPd8X8BvclZeKDHt3PUi2alH2PT7LxZIa4mUUv2Ppm6Qa7XYyIVvnTI7Z9hpNPcuEXJaPf3A64uzB0+ks61RzzbsiNpprmSRWFgtE0isX7szRmViH+S39JpZK+zmLDHxe/MKi/BCalAh8+7k8aEHfuH7JxhMT95ghbq6Hsjq/9ytdrJfsSS4EFWHl+CaT2m+57+LGvICBsfP/uIaKu3ZZFF45ojm0XOo2I6N9w8MC+PNfUhNsNmeV+fl9F5E2TTKfDITzzjgIye6PF+++ylg24upSMR06LXjLZBdJLlb+WckkFqsV6KPO53lLwl1+PndR7mq4Qgh64Bv80qWv71/d/Iu3Fs6AEJrtOjqY7KGxy0OD/3q9HpLAeUG8SqfsgAO/3l/R9v4LhKp1LKJvQtRWn27/0RNjTU4/PxOUsn3tvHo7M47JhYZnVveqkGjMTNiPhqXcGqCbcKpQTd0Samu9fc/pYaCqEWhDRvMx87WPKR5snQHabMc12w8sHwjQxHW3pCmJ19fq0kjdVkSRhrNsN27N8Ve+8ANHytY80ilCJH+OOS/JIKnLBlhLR3W/GTd3it3IRCqHlWpiOHVqZEGvDcsMKv86YlF6rYrK7vhM8xPYNkRU1w6DCflLSC0UnP6Eyb0T9FT4u05IssdW0LNmM9HJDrXsWqksr6e5R0+/Yugnd75pQTzPYTQmd3oazMkj+xYAdI3HuhH32d+1GvUoxrP6Kzg81VQ0ZLXduC0zNe02wyjWVpCa8jpB5DGnnnrbO/Djbt0TVuBkRU7H2378FOB5p4DGmZ629/fxJnqUeZKff1OETIKhcMybf9Ln5+O0tjoH8hKK49OCM9NTpq1/vsV0/GkjDUY0iPxXNaL+narEHC8+IgH0PqtZezb7uX70soXnO/YMRMzYyDYX2s3B32vBK3qPwv14BbFIpmCvtKbKZFqIl6DGmUdPSZiMEvZGpj0Ae5x991FWMD+RjSS/CvVjX+6j2uVfHASQMBvZAImhzUz8qi6L8BpdbSEvzmjXgNoi/ZitdKmH9Dtc61FVLG0AVuPf6/Rt+XbsAvSE2vVTGvxGZerp95rfi+LsK8NgGYUGT+ve1i4/v1Ue/uY+OaTwsvubT9rwxyc7J+QuxiBo1ufimvW056oMvbgS9NKFu7gVObtzb60kSoLfi1EuYFtdezi+fbL6ioFlrMyzXgFgrFqtivxGaAmqzq5GWcbAlL0C+j3aBMQAAQAAQAAUDglRJ4CTter7Q9oHJAABAABAABQKBFEAABuEWoCQgJCAACgAAg8KYRAAH4TdMoaA8gAAgAAoBAiyAAAnCLUBMQEhAABAABQOBNIwAC8JumUdAeQAAQAAQAgRZBAATgFqEmICQgAAgAAoDAm0YABOA3TaOgPYAAIAAIAAItggAIwC1CTUBIQAAQAAQAgTeNAAjAb5pGQXsAAUAAEAAEWgQBEIBbhJqAkIAAIAAIAAJvGgEQgN80jYL2AAKAACAACLQIAiAAtwg1ASEBAUAAEAAE3jQCIAC/aRoF7QEEAAFAABBoEQRAAG4RagJCAgKAACAACLxpBEAAftM0CtoDCAACgAAg0CIIgADcItQEhAQEAAFAABB40wiAAPymaRS0BxAABAABQKBFEAABuEWoCQgJCAACgAAg8KYRAAH4TdMoaA8gAAgAAoBAiyAAAnCLUBMQEhAABAABQOBNIwAC8JumUdAeQAAQAAQAgRZBAATgFqEmICQgAAgAAoDAm0bgvwjAhOTQe23HbyvGnwueJv2+77ysu9hzXWQlM5F75lbMJ+cCph+L3Fmps5LxOU4RN3ZfCPxDqG3mJbhi1eKTo9P0zcz+32dT31sxYvQvj5rbnv9ewBdUI15QMqbd4yOKF1QcKKa5BLQXvug0cPXDF9apm1vvS8mnOjazzYi1OWYaQ4iOzhrw0V/85/N4L0VIUOjrTeC/CMAwK270ZxPaOcGvFAUc3LNNxoruG9ox/os2/5umakrHTL+6ooz4N2VYvpZIP3DJez1f0zgHVrR39TG/SeMiGDXndOJFSem/ZeNZv6YnfyVuYtiiFM5sdTU62vSXMKG0pAkHhBcez5vc70arVjdS3sk/9cxMg4tTMztPLC2qLkd1/Em7t4rzmyi2ccsaHoFdHCd96h7NbHi85X43T+a51Gel8dijn4d0nHv+3w/M0JBBs6cnebzuPbAxiucjALv2mdq7+Pd115WNSwJHAIE6BGj/BQ1GQPeRAf9FRaCOf0FAl7l317NOc5Mc/8VACWW/vzdmSiBVAozC1oc6WE7p54vE4d/Hr+0EXfru4fw59KAd3kF1fbNasj1V1e0zns+LdtiwPbv3SPa/YAUu/WcEUK8Ow73+2aUt6ypa2OABzmNST3/QYbDLv+hPLavRQNrnJ2AhAONlOyYPOhY8Obg47XHRMzFv4FerZndyhiG8+OSyxRvOZhaJdXTH4C7jP/tifAIHhshF5vd7bKT3DxTnCuVSlWvP2Ys/7OqGQhD2ZOO7s/c9k4mE/h8d3jrBuwlPSqgk67Zl/HhPoeU4ToiFccjG2CJcIlq67fHGR0o5jZHQJmTVW96hlU97LBa/v7zVKFZNo3V71pxfG9zpTLJk3Mxcdm8XcZY4R6C2j43YMdHTz0rNeuVf+zO/ulpVokW8Q7y/nhg+0JXqM4rcvPf2PLtarJYTqE+I14KxYUPcqFLUZSWfb87a90zP8fEY4khAttapE8XpT6b/+eyWFA2O84qsnkQQMuF3f2TvzpXztTDHzWXyyKjPo21QrGrJ9/d3S/QCje7y8gtbUIjmG3ToA18/2KIwuFT0w5bHm7OUSgh19XBf9H7UcFJNEKQsK/1mZ87uHJWKYds1OeLnQVx3BOJfS+93qEqhUEuxjFafP4Jh+qBJHb+NMKLBss5dqIz/INGE3HKjNGlPB3wJfX00qKNhBqm+mpvyNfzt4aD21DeYxkCYzOa4HCLrhDA3zH1FEpOJQD2mum0dIjiR4/VBWO21guMlx+zcN3elkYf094smzROKFDqVTPJuCp8GweFTolaMIC+FIFy9ZXx6WregmMzS03l6hY4xelX01DDVgUV529MUpVKCwbPr9U7Ap0PZlKZ0kpVjc09X6QWVDl9fihhQHYXJGWS3dej4tvo7D1RFQrTrZ+EL+xoKN5v0suWDH2XEujCLlBK5Ho3yXPilezhliNj9rbkr9klz+BjBZiak+H4x08WXbihCJpjRoyxwnmv5PsGjSkzNdP1uj39bmv72xtwl28TlCLPdUHtRqrLXgdhJPhAlzGZ26m6fEATCBWVTB1T0PBz9PzdSeM3FdflrDogL5QgvjjtzoX9vH9gaGbPCP9dBQnR47uRf7ysl5TLsq4F9l8Kwfa+vd37SlmoUlrFi0LTS0fN4l7dcKZEqsLD3Nv000uXB1gUr9t7J4SsItmdCyox5H/cyEMBL933y7sZH8kq+/ZjUQx9Hkc6BOmrBz1iQ0aKfgZSPdn2zaO25Qp1r/PBO+K5rEZv+/iTGWEfjsvTpywdNfxDXm1mYK5FL0agJixaOotSH5exf+N32tKxSqZ7Bi+z1zrzPhoXaWiNANkB07ed3Z+65zacHDfhi9cJ+XtV1ot4dOnDXn70uG5Ti0Jzu0FhKcOT/AwGLPob0eVmPkTE/bd97JPVt+t6Vuwx7HYQO9ug3d9OxKzfTjq9K5v/+6c83qtcysaJc5thfU//cv3thyIX53x4TUSuKaPg7m44d3/tJG6MXaoIonnbo3lcC7o4VvfPmB2FPKmTG/IT6zy33/kD8j6/uU/xtbOv8h+P/FmNcp3Zs6e26y5aY9GYRo12ILdUkTH5H7b5xbqd730QG3X/yU5aVRUsi50z69Husrxf14v/SeZEz/931+TmG7DhGa9M34erK3uU/dVrA4U/7o6iQbBIu+2V95hWf6Du/9kp7i3UnU2VmC6hOM/HK4g83lLkM7lz4W7eNofIz1RvhhB5yjQnd+23Pst+TDydBm9Y+OkDuSKJOCxZ0z1gS2YPp8PGn3TOWJd2bQUVfi8JAxO3jmb/pfE+s6lO6JunYGI8QOpWbUAnnrMy85Rt58ec+hV+F+9xOf++yimyTW8f4u8u67+7BdkiMubMsKWNp5+roS14jzXpS5hEcWD/+oraDP/Pp7ga7J/l8OsjW6FyYrbjJtMrjN4wNx24cq2L04CYal3Mx1a4Zd5KT74x8L29Ppt7MmnItGrzwqYYdyOI8Ff78k+Cpk22greZpQR096eR/bpO3nugebKiVFue742irg3McWSFe64+2On48cZUx+poKxO8erOR9GH3oSKtTe4L7eJAUcHqQ+9c7Wl+92e7QQrvM77M3PzGIQ+fM3tPq6AbvsEZDTyxfpugV8seuxP2f21xcUXLb+oI7gWVXsBdsjd19IGqEpOiL9XJjdh3bftKPcWevt7+4w9f1fM6ivZraJmHKIyeIsb8mHDnW+tBqtwAUkl/Kn7MdH7m5zbXTkQMqJJlN3ByAZ/z+eO5Z+tTNbW6kJSyOly2eU5KLWSVjTn21GmjOJ9h14NLDJ46u+Z+/ffJXh0+cOEF2ZkP0NSZCdfng7bhFqYePnTq589MO5Fgc07NjJy/fe+76zYupM7jn5y/ca9yIQDxHrDpy4vBXPRotPJjzM1ZEM+dntPd//3x1UbdVp9Mu7ZiC37ujtmp5VOGEMlsU8eW2nXsOrh8h+WXuukyD+nT0oJHfpJ66duvaX4uiM7//fNMTDLJKQJ93McNvzt4rl3dN4Zxa/sedOjaD+ocE4NmP8qz7BysNBaf+PxCwEoDRsN4poaQ/Rt3j49yL8wopS0IDek8c0tqXw4BRh6ih/aOk2dlCk4dBvHsMbG0PQzA7LiXZ+caZm899iwsmPZqu6ZQU0J4N0x1cPuruZNqLVFX8/Zg2vI93KBMij3+c5FR0l/8QcugQoL+bp8LU/Gkfn5vxAMNEknsaTgcfQ7xCbPu3dybdAWzn2M5dl1Ous9gjCdWJu9LQroEpLghMYw3o6xNSyD9VSWW3D/P9MNHB3QaGGayUzlyXMik5BsGFwmMldhP6cD1Q2DHIf3oMan14K3lUfs3O44N2tjYwLaJrwNDqjXDEiTstiRtmj5K1hnX06kLIMgUWZbQkDKUQBNbJFY8FGhWMege6xNpTrZc9KNqHeS4cyvVlwExn7kdd7a7dFlVYK570SHKZDLJl29ZvDsJI7O8SyYE5kS79E6tXlBn2/Xuhl49LKAXLxceuoL362VOqotuNXBL+y2/RW9YGjXSVrpiec6icksZ8InClimCxEEmm6MBflU8kCMuGUCnxGiGrzpUcxHiTehlGFE0n2Kuf1/AQShkIh+XrRIKxGzjZNdYDpcGwSxteT39Ndq6VURhVAeLjnJJIzbY5cQ5+ElWBxHqtSGIK14eM4iizd4pD2YVKMhaSX1qP8EwOZ5CDQKaX8+DOtPysugM0WveJnnEcqlg7PxYXIe6fq9J29RgRgiIMZvI4br3l98aV66QHD2k6Tvfv448iKD1xokdiXsWFIqtaNau+xiX/iyNwxPB3e3tToy+6i5832f3tWo+YmBzOtUVhG6+kwV04+U8KmghB5vyMFYnM+Bks5/x5fsKocfEcFHVuM354fKPBVePyGIkD+hvU59lnQHzphXOU+tDIQW/3j/Wwo8E0l9ZDevqXZOeqGl9Z9wjK6zl2UBAbZQf17BYiLSiQ1FEHzZZNV8jkVhVkvXRw9s0nYMVUYVtbltH7oSiCYxjlv4iqeztX/3bwZoFYD8GEslLn056a51DZEAeOwfuT38hPmLhKhkN2VuJ7Y7aEtkKJuHMoH0gW4uJkYwzAuEJbSTA7OZgusOcwmdQRtE2offYTSZVvZbYzE8oUV6nEOT6ubclryGVeGDWEBKoc0inrccIkZONKcZ1IDvE4DOPsDnFgciGtUA5BrpCaX/7Dvry/C9TU5BHTlevcyIIpYWCmBxnbqYS6OzEQdeNCa44QVXIdwbHhGTkgTE8OXGI4SaikqQezNzyQ8nUkPaxSTXvbqp8yKwzZusSU+OXY0zW/XZ5ahYTFBSwbH9COTYiqNGp55QcLRCbtYhibpyd9A9dKMIPZ9vaQQq5sjr+Ao/u5OL0nSpM7t70quubsuj7KUDCd1bmfcUPAxneBf9a1x6fSdEOGWoigMEJal0pFuA2NuDCUnHtU3VLDLFvEJCGu3LdFEjY+Lqb2fjArlMlTsLt3/RVjTHttc+GGY9ISBdkiQiEiYnWWjcBQNsxCbYzVIxAKEZhVfUAwaeUmaZkONIZYJyatBMULTz/7eVtFJp8aSeikWk1S7ZACQhke7nU1gFdV4Rx/ulFJiBPD2dKSqbHpGq1AgqevuD9gjfE7obShBZOW+ioTzHT3dK3XyTWFp9f+tPVMJp+aheqkQk2y5cGvUXJzfsZKm8z4GVxcKWG4OLMNcBEnV2crXs1UMszgcEzejenAYYpJVZBn+Fc3rd5w7F6JgtS9XiHSx+qqvZsFgUgjsDOqlEajQRiG1fEzeqVCx/Y0CmXhcnD4/z2Bpk21LiL11VWzNlRNX79nZKg9Sgh3T+13EKr22LhIIMIhcmGN3BcRVCAcx+eLvmQ1MMOVjecryZ5AdWmFQqeDKH+O2DKcYU2ZFIJ4lCwyiUbD5jjDsFuwk/vpyj8fyOIHBmGnhLtwqXdIsGH31lpCEJiMx7U5ELorGxJItBhEp0SXaoQQg2tH+ez1G++fDEw8/C7Xiw7pnjyMWUOtLyF2DGdIX0XGKcpZ4+QOIG4NIexkz4CVOinlnMkydRWmAEfcPXJvTpHXwfmt2pKzBm35pI8f14pENYGgokVNsiAMeR625Yx/K3H8W5CqQvjlqjtzL/HO9GO7OjJtPbh7FoVEmhsAkcXXK9xYC8wJC/cof5qnhkIbLRLWkcT4EQ3n9uFlHr+sUp8Qe/T1CWscORCEhpIOqdGVtQcQvyCm4pZSgDt6kTudfFW+itne3ySv/Erp7iqXJQMa7sLClOw1FlevcOpUnVR1/OmnB2kL18b39iVHj8q1ox7cN3+dFQmtniJIKye9M4OsVi7Uqh3YHLIVReULvqyKWRn9XQcGEyZuf3dnpmkXxVRU9fjC+BVxdEQklTpy4ZmyvCptRTUuBIVhPUE5czKpcJXxA5PB49D7f5swr40ZG7dCxmozmnmSLL6+RVZfByP1TAwv2jV//qWYVRu/7+jGhPW3vu0780UPEcz4GYTjxNFmV5JDLfIGQrxKVKmHPJtoGKERCoxDUkIuFKkdIhwRovLYkk8POixcd7CPLwvBcn4f9b/7tR3FIgFLFWGFOflISHJg475h6Qpw/P8hAXMe2jIGvVyusfMN87UnZwiKR/sP36+za4WXn9r+V76a0BQf33FS2ia5TVN+XHf9x+H9R628VVMG6jAgwSbtRjm1aaRX7E6rNN2xZOsyIFx/4GRxjoYcUlesPl/lneAWSd6g5OncWl3+SyarZ4RrTyfBmjtY6xA7a9GQahcc4G5b9bTyUc1TODCrd4J91uW845U4oVcdPfEs28etF3W7GSZTwx5eDh7khhemPnKJX2ZYwURceQO9ZYduKsgCMDH/z4dNjO85kW6dJfy9BVQjxU9KjDvjZBSRq/QsF/swaviM51x9dr7uU0EIg8tSZ5boDBUakgVhyHJyMksvleu0BERnokwEZjEoH28f4zNY8Wzh6So+WS2mLyng732irinNxYGhI5fTG244omHJ3Z3Tr921NqGvEQhh9e1rc31n3p83Wf36soxGJMsQHSFveqrC5BXKC78VHpU5JHeonf4W73kyYGDWgbKaIuCwvtygJ+WbLml1Wu3FTeXZIdw+IYbQgqv/2lzh8ZZn29r760xXoY50Nl+Rz0llsQAABnNJREFU08TiMJVZI8P0TqxwT5SUTXybf/Jp3fFMjQzN+0DoT355d8DUkqx64wni7t7SW5UELpGl7pW6dXMOIfuESq+AGcEhZPSFMEHl/gvksM5KguOTneiXyvblYLhOc36HMK9aRTQflme57IGQYpFzssJUL91h8ED01K/P0krJASShqVBeOSIurL6k+WSMAuGiKxsWL9l8vapZXGAnF0ddXlZBk88hESq5AuEFh3IpAvxzBy4IrBKwAsfiKTN+Bg3t3p13d0/qfQmGVd7evj+9oW2bKUx3Z8/WW5UYJknfseeOW7duISihlcv1TgHhnqQ94+I7+08+rSN7swlUV4WXXL8uSOzREdyBZQY+OFRDoKmAVR+VXdIHc659OX/YCGeeva1n2/BIWmZtSWEd/K5/2ndZkcY5bsS3SwZSy66y0wtGL7uhw5WVSuX9CX22o7SY97csH2q4mZh0VxXPikoqTeN76gjSbnD83K2ZA74scGTRI3gOtmJD6bDNmEnxRVsf9/n4oQJhxrWJ3D7Ikdp1onE6+ukO0rmdmTQ8li25C3WqnkEZLjObYP+u4Z89TO/74VOM7rryh9bj7OGw3gm/SzIWLDr9tg7xDPZe+65/KCWfw7v/85++M63NRSaPwYgLdDQ9C4PYvT81smDznQ5pNI6tbag30/oIF3Hy/mmK4r0/rnZg0uwd7cNNq8BI55So4RufdF341MMOdQ9xaGVbZ8ec5jx9iOuUnRcDUxFb/+BjM/38UQvCkHc7l5bN2/owV4YjdGZs66hVXQzRkM37cXb44l0ZHQ+p5BDC83AeMYgz3MQD9moX9N7dzAGzCul0+rApXZZGmQZh9JhRb/lOPnRe3Llf008iwb59XIN+zX8YG7DMuOtORvoq2a4f8r4p02sQ1CPCacqagFG1T5wQOqmmuBiW1nGNaIjnsq+1X31/r70I4sXzvlnmFWyQRH23NLXI+ZNhprheV430RI/322cvHXRzKR2JmBa9ZrSNSfZGunYb6P/hndwPhla4uKL2AQ7RQbDIkKdk75OpG+R6PSZS4UuH3P4ZRjrNjVuUbF2JhEKoeVamqxd+YLRNIrF+7M0ZlYh/kt/SafbUnUmhHp+Pz1k68d4+Hp3FYcfENmEcdt38l47NXfz2rTXkXdDDHGNoJiNAw9xnDZMsGXv3kK9NUGt2GM24E4nEzYj4al3Bqgm3CqUE3dEmprvX3P6mljefjPECoirjxL79DsFTJ7U3bCBZT4hb36njzi6ekrSLxuT0+Xb/3A4WbqpEQ/83Z/z8HyYM2cdzYXHCY8hNeGPJups/jp5/SgapxVIp8kHfo3TUb8yadZODrNdr7izNjJ9hxL+3bOZXiz7quQXjJozo3Mrmqrkr6x6D7dsm4uvGdH1QSfNPmrVseiwdgt0Gzv7w9tcfDDnl4sq2D0iMCaJRQyBjajYBU3591l9/V/T5pBd4BqkpTfw/Pw8XFBRwudx/SYF6PKDnnrb7t0/2te7K/mU94PKXS4D8JaxxS20Wb/ugzm9xvNwaG5WOaw/OSE+Njtr1Pvv5BoeNSnqJB6jHkB6L57Re0tXSAOC5Kycqyqf1E3TcTz2G9PITIf77w94/Mr/+a3k/w1NrLSQ1y89oz3zWZZX7xiYeQ5pRNefct92ae4vBc/Ihfwnrk8knu21YPZh8+A8kQMAygdfXyVmWGZx5WQRsEj7Zt+tlFd68ctVaWoLfvBGvcfRtXjte71zqe2mPgidu6N2Sou/rTbSedLBrysrDKS1IYCDqqyIAAvALII+JBL9eEde/34YsFnYI9P4g1sxK6guo8o0twtZu4FTyHjiQXioBVtL355Jeag3/vHCs5NKOvzIaPb6D2MUMGhfX7GIJReZfqRcb//486t19PAiNzcYIMr5kAi9mCfolCwmKBwQAAUAAEAAE3jQCYIviTdMoaA8gAAgAAoBAiyAAAnCLUBMQEhAABAABQOBNIwAC8JumUdAeQAAQAAQAgRZBAATgFqEmICQgAAgAAoDAm0YABOA3TaOgPYAAIAAIAAItggAIwC1CTUBIQAAQAAQAgTeNAAjAb5pGQXsAAUAAEAAEWgQBEIBbhJqAkIAAIAAIAAJvGgEQgN80jYL2AAKAACAACLQIAiAAtwg1ASEBAUAAEAAE3jQCIAC/aRoF7QEEAAFAABBoEQRAAG4RagJCAgKAACAACLxpBP4P0z4gNcXazUsAAAAASUVORK5CYII=;" vertex="1" parent="1">
          <mxGeometry x="814.31" y="230" width="441.38" height="60" as="geometry" />
        </mxCell>
      </root>
    </mxGraphModel>
  </diagram>
</mxfile>
